<?xml version="1.0" encoding="utf-8"?>
<!-- Generator: Adobe Illustrator 27.0.0, SVG Export Plug-In . SVG Version: 6.00 Build 0)  -->
<svg version="1.1" id="Layer_2_00000063634084645527619110000005000200358314800313_"
	 xmlns="http://www.w3.org/2000/svg" xmlns:xlink="http://www.w3.org/1999/xlink" x="0px" y="0px" viewBox="0 0 1150.7 1122.3"
	 style="enable-background:new 0 0 1150.7 1122.3;" xml:space="preserve">
<style type="text/css">
	.st0{fill:#3A2820;}
	.st1{fill:#EAB67F;}
	.st2{fill:#FFFFFF;}
	.st3{fill:#D35F2C;}
	.st4{clip-path:url(#SVGID_00000145742239511894221920000016526385819458501288_);}
	.st5{clip-path:url(#SVGID_00000008151322295578816780000005837349393507204787_);}
	
		.st6{clip-path:url(#SVGID_00000135674082931565662740000006024627962789271178_);fill-rule:evenodd;clip-rule:evenodd;fill:#FFFFFF;}
	.st7{clip-path:url(#SVGID_00000008151322295578816780000005837349393507204787_);fill-rule:evenodd;clip-rule:evenodd;}
	
		.st8{clip-path:url(#SVGID_00000008151322295578816780000005837349393507204787_);fill:none;stroke:#000000;stroke-width:1.7654;stroke-miterlimit:10;}
	.st9{clip-path:url(#SVGID_00000020357865820334208730000002304059867819900804_);fill-rule:evenodd;clip-rule:evenodd;}
	.st10{clip-path:url(#SVGID_00000063593946508645767270000017670505212140223160_);}
</style>
<g id="Layer_1-2_00000147906028947250287570000013607725059691716272_">
	<g>
		<path class="st0" d="M417,409c-34.8,100.5-61.3,203-88.1,306c-12.9,0.7-26.2,1.5-39.7,2.2C265,634,238,551.9,210,470.1
			c-0.3,0-0.6-0.1-0.9-0.1c-0.5,1-1,2.1-1.4,3.1c-11.1,28.1-20.8,56.7-29.6,85.5c-14.2,46.5-28.5,92.9-42.7,139.4
			c-1.5,4.8-2.8,9.6-4.1,14.4c-0.4,1.7-1.1,2.6-3,2.6c-12.2,0.6-24.3,1.3-36.5,2c-0.4,0-0.7-0.1-1.4-0.2c-0.3-0.8-0.7-1.7-0.9-2.6
			c-15.7-62.6-33.6-124.5-51.3-186.5c-10.9-38.2-23.2-75.9-36.5-113.3c-0.5-1.4-0.9-2.8-1.7-5c17.7-0.6,34.8-1.2,52.4-1.8
			c9.7,41,19.6,81.9,31.3,122.2c11.7,40.4,22.2,81.1,35.7,120.9c0.3,0,0.6,0,0.9,0.1c0.5-1.2,1.1-2.3,1.6-3.5
			c12.2-30.6,23.2-61.6,32.7-93.2c13.1-43.3,26.5-86.4,39.8-129.6c1.5-4.9,2.9-9.8,4.4-15.1c13.3-0.6,26.4-1.2,39.9-1.8
			c23.8,82,49.4,163.2,78.2,243.6c14.2-39.9,25.4-80.5,36.8-121c11.4-40.5,21.2-81.4,30.8-122.6C395.4,408,406.1,408.5,417,409
			L417,409z"/>
		<path class="st0" d="M839.9,504.2c-11.2-31.3-31.6-55.2-59.6-72.7c-25.7-16-53.9-24.4-83.9-26c-16.4-0.9-32.9-0.4-49.3,0.1
			c-26.7,0.9-53.4,2.2-80.1,3.4c-1.1,0.1-2.2,0.2-3.5,0.4c4.7,101.9,4.6,203.5,0,305.6c1.8,0,3.3,0,4.7,0
			c23.2,0.3,46.4,0.7,69.6,0.9c17.3,0.2,34.6,1,51.9-0.3c27.7-2,53.8-9.3,77.9-23.1c24.8-14.2,44.5-33.6,58.8-58.3
			c12.1-20.8,18.9-43.3,20.9-67.2C849.3,545.6,847.2,524.5,839.9,504.2L839.9,504.2z M800.8,573.4c-1.3,21.2-6.7,41.3-17.4,59.7
			c-19.6,33.8-49.3,53.2-87.6,59.9c-9,1.6-18.2,2.3-27.3,2.1c-17.6-0.5-35.1-1.3-52.6-2c-0.9,0-1.7-0.2-3.2-0.4
			c-3.5-88.1-3.5-175.8,0-263.8c1.3-0.2,2.2-0.5,3.2-0.5c20.9-1.2,41.9-2,62.8-1.4c21.9,0.6,42.7,5.8,61.8,16.8
			c22.4,13,38.2,31.8,48.3,55.4C799,522.9,802.4,547.8,800.8,573.4L800.8,573.4z"/>
		<path class="st0" d="M1104.4,613.5c-14.2-34-28.1-68.1-41.7-102.3c-13.7-34.3-26.8-68.8-40.3-103.5c-0.7,0-1.7,0-2.7,0
			c-12.4,0.5-24.8,1.1-37.2,1.4c-3.3,0.1-4.7,1.4-5.9,4.4c-18.8,49-37.7,97.9-56.7,146.8c-19.9,51.4-42.2,101.8-66.5,151.3
			c-0.5,1-0.8,2-1.5,3.6c11.4,0.7,22.3,1.4,33.4,2.1c0.6-1.5,1-2.6,1.5-3.8c5.8-16,11.5-32.1,17.6-48c8.2-21.5,16.9-42.9,25.3-64.3
			c0.9-2.3,2.1-3.4,4.6-3.4c4.5-0.1,9-0.6,13.5-0.7c33.1-1.3,66.2-0.9,99.3,0.7c3.3,0.1,4.8,1.3,6,4.3c15.1,36.9,29.5,74,42.9,111.5
			c0.4,1.3,1,2.5,1.5,3.8c17.7-0.7,35.1-1.4,53.2-2.1C1134.2,681.1,1118.7,647.6,1104.4,613.5L1104.4,613.5z M941.3,572.6
			c0.6-1.6,0.9-2.8,1.4-4c7.9-19.1,15.7-38.2,23.7-57.3c7.4-17.7,14.8-35.4,22.2-53c0.5-1.2,1.1-2.5,2-4.5
			c18.5,39.3,34.7,78.7,50.7,118.8C1007.7,575,974.8,574.9,941.3,572.6L941.3,572.6z"/>
		<path class="st0" d="M500.5,715.1c-16.9,0.7-33.6,1.4-49.9,2c-0.4-0.4-0.5-0.5-0.5-0.6c-0.1-0.1-0.1-0.2-0.1-0.3
			c4.4-101.9,4.5-203.8,0-305.7c0-0.2,0.2-0.4,0.5-1.2c16.3-0.6,33-1.2,50-1.7c-2.6,51.5-4,102.7-3.9,153.9
			C496.6,612.5,497.7,663.6,500.5,715.1L500.5,715.1z"/>
	</g>
</g>
</svg>
