<?xml version="1.0" standalone="no"?>
<!DOCTYPE svg PUBLIC "-//W3C//DTD SVG 1.1//EN" "http://www.w3.org/Graphics/SVG/1.1/DTD/svg11.dtd" >
<svg xmlns="http://www.w3.org/2000/svg">
<metadata>Generated by IcoMoon</metadata>
<defs>
<font id="Trevox" horiz-adv-x="1024">
<font-face units-per-em="1024" ascent="960" descent="-64" />
<missing-glyph horiz-adv-x="1024" />
<glyph unicode="&#x20;" horiz-adv-x="512" d="" />
<glyph unicode="&#xe900;" glyph-name="add-button" d="M512 821.6c-206.4 0-374.4-167.2-374.4-374.4s167.2-374.4 374.4-374.4 374.4 167.2 374.4 374.4c-0.8 207.2-168 374.4-374.4 374.4zM512 101.6c-191.2 0-346.4 155.2-346.4 346.4s155.2 345.6 346.4 345.6 346.4-155.2 346.4-346.4c-0.8-190.4-155.2-344.8-346.4-345.6zM697.6 493.6h-139.2v140c0 25.6-20.8 46.4-46.4 46.4s-46.4-20.8-46.4-46.4v-139.2h-139.2c-25.6 0-46.4-20.8-46.4-46.4s20.8-46.4 46.4-46.4h139.2v-139.2c0-25.6 20.8-46.4 46.4-46.4s46.4 20.8 46.4 46.4v139.2h139.2c25.6 0 46.4 20.8 46.4 46.4s-21.6 45.6-46.4 45.6zM697.6 429.6h-153.6c-8 0-14.4-6.4-14.4-14.4v-153.6c0-9.6-8-18.4-18.4-18.4s-18.4 8-18.4 18.4v154.4c0 8-6.4 13.6-14.4 14.4h-152c-9.6 0-18.4 8-18.4 18.4 0 9.6 8 18.4 18.4 18.4h153.6c8 0 13.6 6.4 14.4 14.4v152c0 9.6 8 18.4 18.4 18.4s18.4-8 18.4-18.4v-153.6c0-8 6.4-14.4 14.4-14.4h153.6c9.6 0 18.4-8 18.4-18.4-2.4-8.8-10.4-17.6-20-17.6z" />
<glyph unicode="&#xe901;" glyph-name="add" d="M532 821.6h-99.2c-52 0-95.2-42.4-95.2-95.2v-34.4h-124c-8 0-14.4-6.4-14.4-14.4v-0.8l20-414.4c2.4-56.8 49.6-101.6 106.4-101.6h229.6c30.4-71.2 112.8-104 184-73.6s104 112.8 73.6 184c-12.8 29.6-35.2 54.4-64 68.8l16 336.8c0 8-6.4 14.4-13.6 14.4h-124.8v34.4c0 53.6-42.4 96-94.4 96zM366.4 727.2c0 36.8 29.6 67.2 67.2 67.2h99.2c36.8 0 67.2-29.6 67.2-67.2v-34.4h-233.6zM787.2 172c-17.6-40.8-58.4-67.2-102.4-67.2-48 0-90.4 30.4-106.4 75.2-4 12-6.4 24-6.4 36.8 0 61.6 50.4 112 112 112 80 0.8 135.2-81.6 103.2-156.8zM736.8 664.8l-15.2-312.8c-74.4 20.8-151.2-22.4-172-96.8-5.6-21.6-7.2-44-2.4-65.6h-220.8c-41.6 0-76.8 32.8-78.4 74.4l-19.2 400h109.6v-47.2c0-8 6.4-14.4 14.4-14.4s14.4 6.4 14.4 14.4v47.2h232.8v-47.2c0-8 6.4-14.4 14.4-14.4s14.4 6.4 14.4 14.4v47.2h108zM684 291.2c-8 0-14.4-6.4-14.4-14.4v-45.6h-45.6c-8 0-14.4-6.4-14.4-14.4s6.4-14.4 14.4-14.4h45.6v-45.6c0-8 6.4-14.4 14.4-14.4s14.4 6.4 14.4 14.4v45.6h45.6c8 0 14.4 6.4 14.4 14.4s-6.4 14.4-14.4 14.4h-45.6v45.6c0 8-6.4 14.4-14.4 14.4z" />
<glyph unicode="&#xe902;" glyph-name="shopping-basket" d="M467.2 773.6c0 18.4-11.2 36-28 44-24 11.2-53.6 0.8-64.8-23.2l-97.6-207.2h-73.6c-34.4 0-62.4-28-62.4-62.4v-4.8c0-32.8 24.8-59.2 57.6-62.4l24.8-228.8c6.4-57.6 55.2-101.6 113.6-101.6h354.4c58.4 0 107.2 44 113.6 101.6l24.8 228.8c32 2.4 57.6 29.6 57.6 62.4v4.8c0 34.4-28 62.4-62.4 62.4h-76.8l-98.4 207.2c-11.2 24-40.8 34.4-64.8 23.2-24.8-12-34.4-40.8-23.2-64.8l78.4-165.6h-256l78.4 164.8c3.2 7.2 4.8 14.4 4.8 21.6zM776 232.8c-4.8-44-41.6-76.8-85.6-76.8h-354.4c-44 0-80.8 32.8-85.6 76.8l-24.8 225.6h574.4zM586.4 764.8c-6.4 13.6 3.2 29.6 18.4 29.6 8 0 15.2-4.8 18.4-12l100-210.4c4.8-10.4 0.8-22.4-9.6-27.2s-22.4-0.8-27.2 9.6zM652.8 559.2l8-16.8c11.2-24 40.8-34.4 64.8-23.2 16 7.2 26.4 23.2 28 40h70.4c19.2 0 34.4-15.2 34.4-34.4v-4.8c0-19.2-15.2-34.4-34.4-34.4-201.6 0-424.8 0-620.8 0-19.2 0-34.4 15.2-34.4 34.4v4.8c0 19.2 15.2 34.4 34.4 34.4h68c2.4-26.4 25.6-47.2 52-44.8 17.6 1.6 32.8 12 40 28l8 16.8zM437.6 764.8l-100-210.4c-4.8-10.4-16.8-14.4-27.2-9.6s-14.4 17.6-9.6 27.2l99.2 210.4c4.8 10.4 17.6 14.4 27.2 9.6 10.4-4.8 15.2-17.6 10.4-27.2zM682.4 340.8c8 0 14.4 6.4 14.4 14.4s-6.4 14.4-14.4 14.4h-340.8c-8 0-14.4-6.4-14.4-14.4s6.4-14.4 14.4-14.4zM669.6 244.8c8 0 14.4 6.4 14.4 14.4s-6.4 14.4-14.4 14.4h-315.2c-8 0-14.4-6.4-14.4-14.4s6.4-14.4 14.4-14.4z" />
<glyph unicode="&#xe903;" glyph-name="best-price" d="M798.4 812.8l-242.4 12c-24 0.8-47.2-8-64-24.8l-324.8-323.2c-32.8-32.8-32.8-86.4 0-120l254.4-254.4c32.8-32.8 86.4-32.8 120 0l324 324c16.8 16.8 25.6 40 24.8 64l-12 242.4c-2.4 43.2-36.8 78.4-80 80zM845.6 446.4l-324-324c-22.4-22.4-57.6-22.4-80 0l-254.4 254.4c-22.4 22.4-22.4 57.6 0 80l324 324c12 12 26.4 16.8 43.2 16.8l242.4-12c28.8-1.6 52-24.8 53.6-53.6l12-242.4c0.8-16.8-5.6-32-16.8-43.2zM751.2 748.8c-16.8-17.6-16.8-45.6 0.8-62.4s44.8-16.8 62.4 0c16.8 17.6 16.8 45.6-0.8 62.4s-44.8 16.8-62.4 0zM794.4 706.4c-6.4-6.4-16.8-6.4-23.2 0s-6.4 16.8 0 23.2 16.8 6.4 23.2 0c5.6-6.4 5.6-16.8 0-23.2zM304 505.6c-5.6 5.6-14.4 5.6-20 0-24-24-44.8-44.8-68.8-68.8-5.6-5.6-5.6-14.4 0-20s13.6-5.6 19.2 0l24.8 24.8 16-16c5.6-5.6 12-8 19.2-8s13.6 2.4 18.4 8l17.6 17.6c10.4 10.4 10.4 26.4 0 36.8zM294.4 445.6l-15.2 15.2 15.2 15.2 15.2-15.2zM370.4 440c-5.6 5.6-14.4 5.6-20 0-24-24-44.8-44.8-68.8-68.8-5.6-5.6-5.6-14.4 0-20s14.4-5.6 20 0l24.8 24.8 1.6-1.6-15.2-43.2c-2.4-7.2 1.6-15.2 8.8-17.6 4.8-2.4 14.4 0 18.4 8.8l11.2 32c2.4-2.4 5.6-3.2 9.6-3.2 6.4 0 13.6 2.4 18.4 8l17.6 17.6c4.8 4.8 8 11.2 8 18.4s-2.4 13.6-8 18.4zM360.8 379.2l-15.2 15.2 15.2 15.2 15.2-15.2zM416.8 372.8l-69.6-69.6c-5.6-5.6-5.6-14.4 0-20s13.6-5.6 19.2 0l69.6 69.6c6.4 5.6 6.4 14.4 0.8 20s-14.4 5.6-20 0zM477.6 332.8c-4.8 4.8-11.2 8-18.4 8s-13.6-2.4-18.4-8l-52.8-52.8c-4.8-4.8-8-11.2-8-18.4s2.4-13.6 8-18.4l26.4-26.4c5.6-5.6 13.6-5.6 19.2 0s5.6 14.4 0 20l-24 24.8 49.6 49.6 24.8-24.8c5.6-5.6 14.4-5.6 20 0s5.6 14.4 0 20zM544 265.6c-4.8 4.8-11.2 8-18.4 8s-13.6-2.4-18.4-8c-0.8-0.8-56-55.2-52.8-52-4.8-4.8-8-11.2-8-18.4s2.4-13.6 8-18.4l26.4-26.4c5.6-5.6 13.6-5.6 19.2 0s5.6 14.4 0 20l-24.8 24.8 15.2 15.2 24.8-24.8c5.6-5.6 13.6-5.6 19.2 0s5.6 14.4 0 20l-24.8 24.8 15.2 15.2 24.8-24.8c5.6-5.6 14.4-5.6 20 0s5.6 14.4 0 20zM424 598.4c-2.4 2.4-6.4 4-9.6 4s-7.2-1.6-9.6-4c-24-24-44.8-44.8-68.8-68.8-2.4-2.4-4-6.4-4-9.6 0-4 1.6-7.2 4-9.6l21.6-20c12.8-12.8 33.6-12.8 46.4 0l7.2 7.2c4.8 4.8 8 11.2 8.8 17.6 6.4 0.8 12.8 4 17.6 8.8l7.2 7.2c12.8 12.8 12.8 33.6 0 46.4zM392.8 518.4l-7.2-7.2c-2.4-2.4-5.6-2.4-8 0l-11.2 11.2 15.2 14.4 11.2-11.2c2.4-2.4 2.4-5.6 0-7.2zM427.2 552l-7.2-7.2c-2.4-2.4-5.6-2.4-7.2 0l-11.2 11.2 14.4 15.2 11.2-11.2c2.4-2.4 2.4-5.6 0-8zM503.2 524.8c-10.4 10.4-26.4 10.4-36.8 0-0.8-0.8-55.2-55.2-52.8-52.8-10.4-10.4-10.4-26.4 0-36.8l26.4-26.4c5.6-5.6 13.6-5.6 19.2 0s5.6 14.4 0 20l-24.8 24.8 15.2 15.2 24.8-24.8c5.6-5.6 13.6-5.6 19.2 0s5.6 14.4 0 20l-24 24 15.2 15.2 24.8-24.8c5.6-5.6 14.4-5.6 20 0s5.6 14.4 0 20zM571.2 456c-9.6 9.6-27.2 9.6-36.8 0l-17.6-17.6c-5.6-4.8-8-11.2-8-18.4s2.4-13.6 8-18.4l16-16-15.2-15.2-24.8 24.8c-5.6 5.6-14.4 5.6-20 0s-5.6-14.4 0-20l26.4-26.4c11.2-11.2 28-9.6 36.8 0l17.6 17.6c10.4 10.4 10.4 26.4 0 36.8l-16 16 15.2 15.2 24.8-24.8c5.6-5.6 14.4-5.6 20 0s5.6 14.4 0 20zM630.4 396c-5.6 5.6-14.4 5.6-20 0s-5.6-14.4 0-20l7.2-7.2-59.2-59.2c-5.6-5.6-5.6-14.4 0-20s13.6-5.6 19.2 0l59.2 59.2 7.2-7.2c5.6-5.6 13.6-5.6 19.2 0s5.6 14.4 0 20zM724 639.2l7.2 7.2c5.6 5.6 5.6 14.4 0 20s-14.4 5.6-20 0l-8-8c-14.4 11.2-35.2 10.4-48.8-2.4l-13.6-13.6c-14.4-14.4-14.4-37.6 0-52l13.6-13.6c1.6-1.6 2.4-4 2.4-6.4s-0.8-4.8-2.4-6.4l-13.6-13.6c-3.2-3.2-8.8-3.2-12 0l-24.8 25.6c-5.6 5.6-14.4 5.6-20 0s-5.6-14.4 0-20l8-8-7.2-7.2c-5.6-5.6-5.6-14.4 0-20 2.4-2.4 6.4-4 9.6-4s7.2 1.6 9.6 4l7.2 7.2c6.4-4.8 14.4-8 22.4-8 9.6 0 19.2 4 25.6 10.4l13.6 13.6c7.2 7.2 10.4 16 10.4 25.6s-4 19.2-10.4 25.6l-13.6 13.6c-3.2 3.2-3.2 8.8 0 12l13.6 13.6c3.2 3.2 8.8 3.2 12 0l25.6-25.6c5.6-5.6 14.4-5.6 20 0s7.2 16.8 1.6 22.4z" />
<glyph unicode="&#xe904;" glyph-name="black-friday" d="M885.6 573.6c0 58.4 0 234.4 0 234.4 0 8-6.4 14.4-14.4 14.4h-719.2c-8 0-13.6-6.4-14.4-14.4v-233.6c0-8 6.4-14.4 14.4-14.4h292.8s-289.6-218.4-301.6-227.2c-3.2-2.4-4.8-6.4-4.8-10.4v-234.4c0-8 6.4-14.4 14.4-14.4h720c8 0 13.6 6.4 14.4 13.6v234.4c0 8-6.4 14.4-14.4 14.4h-293.6s286.4 216 301.6 227.2c4 3.2 4.8 6.4 4.8 10.4zM858.4 308v-205.6h-692v205.6zM532.8 336h-339.2l297.6 224h338.4zM858.4 588.8h-692v205.6h692zM340.8 753.6h-24c-8 0-14.4-6.4-14.4-14.4v-96c0-8 6.4-14.4 14.4-14.4h24c21.6 0 38.4 17.6 38.4 38.4 0 8.8-3.2 17.6-8.8 24 5.6 6.4 8.8 15.2 8.8 24 0 20.8-16.8 38.4-38.4 38.4zM340.8 656.8h-10.4v20h10.4c5.6 0 10.4-4.8 10.4-10.4s-4.8-9.6-10.4-9.6zM341.6 704h-10.4v20.8h10.4c5.6 0 10.4-4.8 10.4-10.4s-4.8-10.4-10.4-10.4zM408 753.6c-8 0-14.4-6.4-14.4-14.4v-96c0-8 6.4-14.4 14.4-14.4h48c9.6 0 15.2 6.4 15.2 14.4s-6.4 14.4-14.4 14.4h-34.4v81.6c0 8-6.4 14.4-14.4 14.4zM550.4 628c8 0 14.4 6.4 14.4 14.4 0 0.8 0 80.8 0 77.6 0 18.4-15.2 33.6-33.6 33.6h-9.6c-18.4 0-33.6-15.2-33.6-33.6 0-1.6 0-79.2 0-76.8 0-8 6.4-14.4 14.4-14.4s13.6 6.4 13.6 14.4v33.6h20v-34.4c0-8 6.4-14.4 14.4-14.4zM516 705.6s0 11.2 0 14.4 2.4 5.6 5.6 5.6h9.6c3.2 0 5.6-2.4 5.6-5.6v-14.4zM612.8 725.6h28.8c8 0 14.4 6.4 14.4 14.4s-6.4 14.4-14.4 14.4h-28.8c-18.4 0-33.6-15.2-33.6-33.6v-57.6c0-18.4 15.2-33.6 33.6-33.6h28.8c8-0.8 14.4 5.6 14.4 13.6s-6.4 14.4-14.4 14.4h-28.8c-3.2 0-5.6 2.4-5.6 5.6v56.8c0 3.2 2.4 5.6 5.6 5.6zM686.4 754.4c-8 0-14.4-6.4-14.4-14.4v-96c0-8 6.4-14.4 14.4-14.4s14.4 6.4 14.4 14.4v34.4h8l12.8-38.4c2.4-10.4 12-12.8 17.6-10.4 7.2 2.4 11.2 10.4 8.8 17.6l-14.4 44 14.4 44c2.4 7.2-1.6 15.2-8.8 17.6s-15.2-1.6-17.6-8.8l-12.8-38.4h-8v34.4c0 8-6.4 14.4-14.4 14.4zM336.8 253.6c0 8-6.4 14.4-14.4 14.4h-48c-8 0-14.4-6.4-14.4-14.4v-96c0-8 6.4-14.4 14.4-14.4s14.4 6.4 14.4 14.4v34.4h34.4c8 0 14.4 6.4 14.4 14.4s-6.4 14.4-14.4 14.4h-35.2v18.4h34.4c8 0 14.4 6.4 14.4 14.4zM489.6 156.8v96c0 8-6.4 14.4-14.4 14.4s-14.4-6.4-14.4-14.4v-96c0-8 6.4-14.4 14.4-14.4s14.4 6.4 14.4 14.4zM556.8 142.4c18.4 0 33.6 15.2 33.6 33.6v57.6c0 18.4-15.2 33.6-33.6 33.6h-28.8c-8 0-14.4-6.4-14.4-14.4v-96c0-8 6.4-14.4 14.4-14.4zM542.4 238.4h14.4c3.2 0 5.6-2.4 5.6-5.6v-56.8c0-3.2-2.4-5.6-5.6-5.6h-14.4zM677.6 142.4c8 0 14.4 6.4 14.4 14.4 0 1.6 0 77.6 0 76.8-1.6 18.4-16 33.6-34.4 33.6h-9.6c-18.4 0-33.6-15.2-33.6-33.6 0-1.6 0-79.2 0-76.8 0-8 6.4-14.4 14.4-14.4s14.4 6.4 14.4 14.4v34.4h20v-34.4c0-8 6.4-14.4 14.4-14.4zM642.4 219.2v14.4c0 3.2 2.4 5.6 5.6 5.6h9.6c3.2 0 5.6-2.4 5.6-5.6v-14.4zM728 267.2c-8 0-14.4-6.4-14.4-14.4v-28.8c0-15.2 10.4-28 24-32v-35.2c0-8 6.4-14.4 14.4-14.4s14.4 6.4 14.4 14.4v35.2c13.6 4 24 16.8 24 32v28.8c0.8 8-5.6 14.4-12.8 14.4-8 0-14.4-6.4-14.4-14.4v-28.8c0-3.2-2.4-5.6-5.6-5.6h-9.6c-3.2 0-5.6 2.4-5.6 5.6v28.8c0 8-6.4 14.4-14.4 14.4zM436.8 224.8v9.6c0 17.6-14.4 32.8-33.6 32.8h-28.8c-8 0-14.4-6.4-14.4-14.4v-96c0-8 6.4-14.4 14.4-14.4s14.4 6.4 14.4 14.4v34.4h3.2l18.4-40c4-8.8 15.2-9.6 18.4-6.4 7.2 3.2 10.4 11.2 7.2 18.4l-15.2 32.8c9.6 5.6 16 16 16 28.8zM408.8 224c0-3.2-2.4-5.6-5.6-5.6-0.8 0-15.2 0-14.4 0 0 2.4 0 21.6 0 20.8h14.4c3.2 0 5.6-2.4 5.6-5.6z" />
<glyph unicode="&#xe905;" glyph-name="box" d="M146.4 650.4c-4-1.6-8-7.2-8-12.8v-380c0-5.6 3.2-10.4 8-12.8l360-170.4c4-1.6 7.2-1.6 12 0l360 170.4c4.8 2.4 8 7.2 8 12.8v380c0 5.6-4 10.4-8 12.8l-360 170.4c-4 1.6-8 1.6-12 0 0 0-321.6-152-360-170.4zM498.4 110.4l-332 156.8v348.8l332-156.8zM858.4 267.2l-332-156.8v348.8l92.8 44v-109.6c0-12 14.4-18.4 23.2-10.4l63.2 56 45.6-3.2c8-0.8 15.2 5.6 15.2 13.6v122.4c20 9.6 71.2 33.6 92.8 44v-348.8zM646.4 424.8v91.2l90.4 42.4v-94.4l-36 3.2c-4 0-7.2-0.8-10.4-3.2zM512 792.8l327.2-154.4-82.4-39.2-327.2 154.4zM396.8 738.4l323.2-152.8-88-44.8-326.4 154.4zM272.8 679.2l327.2-154.4-88-41.6-327.2 155.2zM292.8 277.6c-3.2-7.2 0-15.2 6.4-18.4l124.8-59.2c7.2-3.2 15.2 0 18.4 6.4 3.2 7.2 0 15.2-6.4 18.4l-124.8 59.2c-6.4 4-15.2 0.8-18.4-6.4zM292.8 348c-3.2-7.2 0-15.2 6.4-18.4l124.8-59.2c7.2-3.2 15.2 0 18.4 7.2s0 15.2-6.4 18.4l-124.8 59.2c-6.4 2.4-15.2 0-18.4-7.2z" />
<glyph unicode="&#xe906;" glyph-name="calculator" d="M758.216 822h-492.44c-29.286-0.036-53.016-23.77-53.048-53.053v-641.891c0.032-29.286 23.762-53.020 53.045-53.056h492.443c29.289 0.032 53.024 23.767 53.056 53.053v641.891c-0.032 29.289-23.767 53.024-53.053 53.056h-0.003zM783.272 127.056c-0.018-13.831-11.225-25.038-25.054-25.056h-492.442c-13.829 0.018-25.034 11.226-25.048 25.055v641.889c0.014 13.83 11.219 25.038 25.046 25.056h492.442c13.831-0.018 25.038-11.225 25.056-25.054v-0.002zM362.4 486.216h-64.592c-0.002 0-0.005 0-0.008 0-7.728 0-13.992-6.264-13.992-13.992 0-0.003 0-0.006 0-0.008v0-64.608c0-7.732 6.268-14 14-14v0h64.592c7.732 0 14 6.268 14 14v0 64.608c0 0.002 0 0.005 0 0.008 0 7.728-6.264 13.992-13.992 13.992-0.003 0-0.006 0-0.008 0v0zM348.416 421.6h-36.616v36.616h36.616zM483.672 486.216h-64.608c-7.732 0-14-6.268-14-14v0-64.608c0.005-7.73 6.27-13.995 14-14h64.608c7.732 0 14 6.268 14 14v0 64.608c0 0.002 0 0.005 0 0.008 0 7.728-6.264 13.992-13.992 13.992-0.003 0-0.006 0-0.008 0v0zM469.672 421.6h-36.616v36.616h36.616zM604.936 486.216h-64.608c-0.002 0-0.005 0-0.008 0-7.728 0-13.992-6.264-13.992-13.992 0-0.003 0-0.006 0-0.008v0-64.608c0-7.732 6.268-14 14-14v0h64.608c7.73 0.005 13.995 6.27 14 14v0 64.608c0 7.732-6.268 14-14 14v0zM590.936 421.6h-36.616v36.616h36.616zM726.192 486.216h-64.592c-0.002 0-0.005 0-0.008 0-7.728 0-13.992-6.264-13.992-13.992 0-0.003 0-0.006 0-0.008v0-64.608c0-0.002 0-0.005 0-0.008 0-7.732 6.268-14 14-14h64.608c7.732 0 14 6.268 14 14v0 64.616c0 0.002 0 0.005 0 0.008 0 7.728-6.264 13.992-13.992 13.992-0.003 0-0.006 0-0.008 0v0zM712.192 421.6h-36.616v36.616h36.616zM362.4 364.464h-64.592c-7.732 0-14-6.268-14-14v0-64.616c0-7.732 6.268-14 14-14v0h64.592c7.732 0 14 6.268 14 14v0 64.616c0 7.732-6.268 14-14 14v0zM348.4 299.848h-36.6v36.608h36.616zM483.672 364.464h-64.608c-7.73-0.005-13.995-6.27-14-14v0-64.616c0.005-7.73 6.27-13.995 14-14h64.608c7.732 0 14 6.268 14 14v0 64.616c0 7.732-6.268 14-14 14v0zM469.672 299.848h-36.616v36.608h36.616zM604.936 364.464h-64.608c-7.732 0-14-6.268-14-14v0-64.616c0-7.732 6.268-14 14-14v0h64.608c7.73 0.005 13.995 6.27 14 14v0 64.616c-0.005 7.73-6.27 13.995-14 14v0zM590.936 299.848h-36.616v36.608h36.616zM726.192 364.464h-64.592c-7.732 0-14-6.268-14-14v0-186.4c0-0.002 0-0.005 0-0.008 0-7.728 6.264-13.992 13.992-13.992 0.003 0 0.006 0 0.008 0h64.608c0.002 0 0.005 0 0.008 0 7.728 0 13.992 6.264 13.992 13.992 0 0.003 0 0.006 0 0.008v0 186.4c0 7.732-6.268 14-14 14v0zM712.208 178.064h-36.632v158.4h36.616zM362.4 242.704h-64.592c-0.002 0-0.005 0-0.008 0-7.728 0-13.992-6.264-13.992-13.992 0-0.003 0-0.006 0-0.008v0-64.608c0-0.002 0-0.005 0-0.008 0-7.728 6.264-13.992 13.992-13.992 0.003 0 0.006 0 0.008 0h64.592c0.002 0 0.005 0 0.008 0 7.728 0 13.992 6.264 13.992 13.992 0 0.003 0 0.006 0 0.008v0 64.608c0 0.002 0 0.005 0 0.008 0 7.728-6.264 13.992-13.992 13.992-0.003 0-0.006 0-0.008 0v0zM348.4 178.096h-36.6v36.616h36.616zM483.672 242.704h-64.608c-7.732 0-14-6.268-14-14v0-64.608c0-7.732 6.268-14 14-14v0h64.608c0.002 0 0.005 0 0.008 0 7.728 0 13.992 6.264 13.992 13.992 0 0.003 0 0.006 0 0.008v0 64.608c0 0.002 0 0.005 0 0.008 0 7.728-6.264 13.992-13.992 13.992-0.003 0-0.006 0-0.008 0v0zM469.672 178.096h-36.616v36.616h36.616zM604.936 242.704h-64.608c-0.002 0-0.005 0-0.008 0-7.728 0-13.992-6.264-13.992-13.992 0-0.003 0-0.006 0-0.008v0-64.608c0-0.002 0-0.005 0-0.008 0-7.728 6.264-13.992 13.992-13.992 0.003 0 0.006 0 0.008 0h64.608c7.732 0 14 6.268 14 14v0 64.608c0 7.732-6.268 14-14 14v0zM590.936 178.096h-36.616v36.616h36.616zM709.096 736.568h-394.2c-17.165-0.023-31.073-13.931-31.096-31.094v-122.010c0.023-17.163 13.932-31.070 31.094-31.088h394.202c17.164 0.018 31.073 13.925 31.096 31.086v122.010c-0.023 17.165-13.931 31.073-31.094 31.096h-0.002zM712.192 583.464c0 0 0 0 0 0 0-1.705-1.383-3.088-3.088-3.088-0.003 0-0.006 0-0.008 0v0h-394.2c0 0 0 0 0 0-1.707 0-3.091 1.382-3.096 3.088v0 122.008c0.005 1.708 1.388 3.091 3.096 3.096v0h394.2c1.71 0 3.096-1.386 3.096-3.096v0z" />
<glyph unicode="&#xe907;" glyph-name="cash" d="M153.6 116.8h720c8 0 13.6 6.4 14.4 13.6v420.8c0 8-6.4 13.6-13.6 14.4h-8l-82.4 204.8c-3.2 7.2-11.2 10.4-18.4 8l-538.4-213.6h-73.6c-8 0-13.6-6.4-14.4-13.6v-420.8c0.8-7.2 7.2-13.6 14.4-13.6zM763.2 747.2l72-182.4h-38.4l-24 60c-3.2 7.2-11.2 10.4-18.4 8-27.2-10.4-57.6 2.4-68 29.6-3.2 7.2-11.2 10.4-18.4 8l-264.8-105.6h-100zM766.4 565.6h-288l188.8 74.4c17.6-28.8 51.2-43.2 84.8-36.8zM168 536.8h678.4l13.6-33.6v-359.2h-692zM270.4 195.2c0-8 6.4-14.4 14.4-14.4h459.2c8 0 14.4 6.4 14.4 14.4 0 28.8 23.2 52 52 52 8 0 14.4 6.4 14.4 14.4v158.4c0 13.6-15.2 14.4-14.4 14.4-28.8 0-52 23.2-52 52 0 8-6.4 13.6-13.6 14.4h-460.8c-8 0-13.6-6.4-14.4-13.6 0-28.8-23.2-52-52-52-8 0-13.6-6.4-14.4-13.6v-158.4c0-8 6.4-14.4 14.4-14.4 29.6-1.6 52.8-24.8 52.8-53.6zM232 407.2c33.6 5.6 59.2 32 64.8 64.8h433.6c5.6-33.6 32-59.2 64.8-64.8v-132.8c-33.6-5.6-59.2-32-64.8-64.8h-433.6c-5.6 33.6-32 59.2-64.8 64.8zM612 340.8c0 54.4-44 97.6-97.6 98.4-54.4 0-98.4-44-98.4-97.6 0-54.4 44-98.4 97.6-98.4s98.4 43.2 98.4 97.6zM444 340.8c0 38.4 31.2 70.4 69.6 70.4s70.4-31.2 70.4-69.6c0-38.4-31.2-69.6-69.6-69.6-39.2-0.8-70.4 30.4-70.4 68.8z" />
<glyph unicode="&#xe908;" glyph-name="cashier-machine" d="M872 254.872h-23.528l-43.056 317.352c-3.247 22.675-22.501 39.923-45.8 40h-94.64v72.664h88.456c0.581-0.028 1.262-0.044 1.946-0.044 23.034 0 41.851 18.054 43.073 40.783l0.005 0.109v55.424c-1.231 22.834-20.046 40.884-43.077 40.884-0.685 0-1.366-0.016-2.043-0.048l0.096 0.004h-297.096c-0.583 0.028-1.267 0.044-1.954 0.044-23.030 0-41.843-18.051-43.065-40.776l-0.005-0.109v-55.424c1.222-22.837 20.037-40.892 43.070-40.892 0.687 0 1.371 0.016 2.050 0.048l-0.096-0.004h88.464v-72.648h-95.36v35.84c0 7.732-6.268 14-14 14v0h-129.36c-0.002 0-0.005 0-0.008 0-7.728 0-13.992-6.264-13.992-13.992 0-0.003 0-0.006 0-0.008v0-35.84h-27.688c-23.306-0.077-42.561-17.325-45.779-39.752l-0.029-0.248-43.056-317.368h-23.528c-7.732 0-14-6.268-14-14v0-101.856c0.046-35.889 29.127-64.971 65.012-65.016h617.972c35.889 0.046 64.971 29.127 65.016 65.012v101.86c0 7.732-6.268 14-14 14v0zM439.312 725.736v55.424c0 6.96 7.792 12.84 17.024 12.84h297.096c9.232 0 17.024-5.88 17.024-12.84v-55.424c0-6.96-7.792-12.848-17.024-12.848h-297.096c-9.232 0-17.024 5.888-17.024 12.848zM572.8 684.888h64.176v-72.648h-64.176zM306.080 420.56h129.36c7.73 0.005 13.995 6.27 14 14v0 25.728c4.523-1.377 7.758-5.51 7.76-10.4v0-30.64c-0.005-6.007-4.873-10.875-10.88-10.88h-151.12c-6.007 0.005-10.875 4.873-10.88 10.88v0 30.672c0.002 4.89 3.237 9.023 7.683 10.38l0.077 0.020v-25.76c0-7.732 6.268-14 14-14v0zM320.080 634.080h101.36v-185.52h-101.36v185.52zM246.328 568.48c1.279 8.943 8.872 15.746 18.061 15.776h27.691v-95.768c-20.038-1.63-35.691-18.26-35.76-38.561v-30.647c0.027-21.462 17.418-38.853 38.877-38.88h151.123c21.462 0.027 38.853 17.418 38.88 38.877v30.643c-0.069 20.308-15.722 36.938-35.622 38.559l-0.138 0.009v95.752h310.168c9.192-0.030 16.785-6.833 18.053-15.678l0.011-0.098 42.544-313.6h-616.432zM858 139.032c-0.023-20.434-16.582-36.993-37.014-37.016h-617.97c-20.434 0.023-36.993 16.582-37.016 37.014v87.842h692zM565.752 520.328c-0.002 0-0.005 0-0.008 0-12.769 0-23.12-10.351-23.12-23.12s10.351-23.12 23.12-23.12c12.769 0 23.12 10.351 23.12 23.12v0c0 12.766-10.347 23.115-23.112 23.12v0zM641.128 520.328c-12.769 0-23.12-10.351-23.12-23.12s10.351-23.12 23.12-23.12c12.769 0 23.12 10.351 23.12 23.12v0c0 0.002 0 0.005 0 0.008 0 12.764-10.348 23.112-23.112 23.112-0.003 0-0.006 0-0.008 0v0zM716.504 520.328c-0.002 0-0.005 0-0.008 0-12.769 0-23.12-10.351-23.12-23.12s10.351-23.12 23.12-23.12c12.769 0 23.12 10.351 23.12 23.12v0c0 0.002 0 0.005 0 0.008 0 12.764-10.348 23.112-23.112 23.112v0zM565.752 442.672c-12.764 0-23.112-10.348-23.112-23.112s10.348-23.112 23.112-23.112c12.764 0 23.112 10.348 23.112 23.112v0c0 12.764-10.348 23.112-23.112 23.112v0zM641.128 442.672c-12.761-0.005-23.104-10.35-23.104-23.112 0-12.764 10.348-23.112 23.112-23.112s23.112 10.348 23.112 23.112v0c0 0.002 0 0.005 0 0.008 0 12.76-10.344 23.104-23.104 23.104-0.006 0-0.011 0-0.017 0h0.001zM716.504 442.672c-12.764 0-23.112-10.348-23.112-23.112s10.348-23.112 23.112-23.112c12.764 0 23.112 10.348 23.112 23.112v0c0 0.002 0 0.005 0 0.008 0 12.76-10.344 23.104-23.104 23.104-0.003 0-0.006 0-0.008 0v0zM565.752 365.024c-0.002 0-0.005 0-0.008 0-12.769 0-23.12-10.351-23.12-23.12s10.351-23.12 23.12-23.12c12.769 0 23.12 10.351 23.12 23.12v0c0 12.766-10.347 23.115-23.112 23.12v0zM641.128 365.024c-12.769 0-23.12-10.351-23.12-23.12s10.351-23.12 23.12-23.12c12.769 0 23.12 10.351 23.12 23.12v0c0 0.002 0 0.005 0 0.008 0 12.764-10.348 23.112-23.112 23.112-0.003 0-0.006 0-0.008 0v0zM716.504 365.024c-0.002 0-0.005 0-0.008 0-12.769 0-23.12-10.351-23.12-23.12s10.351-23.12 23.12-23.12c12.769 0 23.12 10.351 23.12 23.12v0c0 0.002 0 0.005 0 0.008 0 12.764-10.348 23.112-23.112 23.112v0zM445.44 347.080h-149.36c-7.732 0-14-6.268-14-14s6.268-14 14-14v0h149.36c7.732 0 14 6.268 14 14s-6.268 14-14 14v0zM352.752 584.24h36c7.732 0 14 6.268 14 14s-6.268 14-14 14v0h-36c-7.732 0-14-6.268-14-14s6.268-14 14-14v0zM352.752 527.32h36c7.732 0 14 6.268 14 14s-6.268 14-14 14v0h-36c-7.732 0-14-6.268-14-14s6.268-14 14-14v0zM352.752 470.4h36c7.732 0 14 6.268 14 14s-6.268 14-14 14v0h-36c-7.732 0-14-6.268-14-14s6.268-14 14-14v0zM239.544 150.4h544.912c7.732 0 14 6.268 14 14s-6.268 14-14 14v0h-544.912c-7.732 0-14-6.268-14-14s6.268-14 14-14v0z" />
<glyph unicode="&#xe909;" glyph-name="coupon" d="M872 668h-720c-8 0-13.6-6.4-14.4-14.4v-67.2c0-5.6 3.2-10.4 8.8-12.8 69.6-28.8 101.6-108.8 72.8-177.6-13.6-32.8-40-59.2-72.8-72.8-5.6-2.4-8.8-7.2-8.8-12.8v-67.2c0-8 6.4-13.6 14.4-14.4h720c8 0 13.6 6.4 14.4 14.4v67.2c0 5.6-3.2 10.4-8.8 12.8-69.6 28.8-101.6 108.8-72.8 177.6 13.6 32.8 39.2 58.4 72.8 72.8 5.6 2.4 8.8 7.2 8.8 12.8v67.2c0 8-6.4 13.6-14.4 14.4zM859.2 595.2c-57.6-27.2-93.6-84.8-93.6-147.2s36-120 92-147.2v-44h-508.8v36c0 8-6.4 14.4-14.4 14.4s-14.4-6.4-14.4-14.4v-36h-153.6v44c81.6 40 115.2 137.6 75.2 219.2-16 32.8-42.4 59.2-75.2 75.2v44h154.4v-36c0-8 6.4-14.4 14.4-14.4s14.4 6.4 14.4 14.4v36h509.6zM334.4 547.2c-8 0-13.6-6.4-14.4-14.4v-50.4c0-8 6.4-14.4 14.4-14.4s14.4 6.4 14.4 14.4v50.4c0 8-6.4 14.4-14.4 14.4zM334.4 427.2c-8 0-14.4-6.4-14.4-14.4v-50.4c0-8 6.4-14.4 14.4-14.4s14.4 6.4 14.4 14.4v50.4c0 8-6.4 14.4-14.4 14.4zM500 591.2c-31.2 0-56.8-25.6-56.8-56.8s25.6-56.8 56.8-56.8 56.8 25.6 56.8 56.8-25.6 56.8-56.8 56.8zM500 505.6c-16 0-28.8 12.8-28.8 28.8s12.8 28.8 28.8 28.8 28.8-12.8 28.8-28.8-12.8-28.8-28.8-28.8zM630.4 419.2c-31.2 0-56.8-25.6-56.8-56.8s25.6-56.8 56.8-56.8 56.8 25.6 56.8 56.8-25.6 56.8-56.8 56.8zM630.4 333.6c-16 0-28.8 12.8-28.8 28.8s12.8 28.8 28.8 28.8 28.8-12.8 28.8-28.8-12.8-28.8-28.8-28.8zM648.8 573.6l-189.6-232c-4.8-5.6-4-15.2 1.6-20 4-4 13.6-4.8 20 1.6l189.6 232c4.8 6.4 4 15.2-1.6 20s-14.4 4-20-1.6z" />
<glyph unicode="&#xe90a;" glyph-name="credit-card" d="M812.976 692.8h-601.952c-40.31-0.050-72.974-32.714-73.024-73.019v-343.573c0.059-40.303 32.72-72.958 73.019-73.008h601.957c40.31 0.050 72.974 32.714 73.024 73.019v343.565c-0.050 40.31-32.714 72.974-73.019 73.024h-0.005zM858 276.208c-0.023-24.857-20.167-45.001-45.022-45.024h-601.954c-24.857 0.023-45.001 20.167-45.024 45.022v343.578c0.027 24.853 20.17 44.993 45.022 45.016h601.954c24.857-0.023 45.001-20.167 45.024-45.022v-0.002zM785.6 501.080v58.48c-0.018 18.638-15.122 33.742-33.758 33.76h-91.754c-18.638-0.023-33.741-15.123-33.768-33.757v-58.483c0.027-18.637 15.13-33.737 33.766-33.76h91.746c18.638 0.018 33.742 15.122 33.76 33.758v0.002zM654.32 501.080v58.48c0.005 3.182 2.585 5.76 5.768 5.76 0 0 0 0 0 0h91.744c3.179-0.005 5.755-2.581 5.76-5.76v0-58.48c-0.005-3.179-2.581-5.755-5.76-5.76v0h-91.744c-3.181 0.005-5.759 2.58-5.768 5.759v0.001zM308.472 371.144h-75.896c-15.866-0.027-28.72-12.879-28.752-28.741v-35.627c0.027-15.868 12.884-28.725 28.749-28.752h75.899c15.868 0.027 28.725 12.884 28.752 28.749v35.627c-0.027 15.868-12.884 28.725-28.749 28.752h-0.003zM309.224 306.776c0-0.415-0.337-0.752-0.752-0.752h-75.896c-0.415 0-0.752 0.337-0.752 0.752v0 35.624c0 0.415 0.337 0.752 0.752 0.752v0h75.896c0.415 0 0.752-0.337 0.752-0.752v0zM469.448 371.144h-75.848c0 0 0 0 0 0-15.886 0-28.768-12.862-28.8-28.741v-35.627c0.023-15.889 12.908-28.76 28.8-28.76 0 0 0 0 0 0h75.888c0 0 0 0 0 0 15.889 0 28.773 12.867 28.8 28.749v35.635c-0.027 15.885-12.911 28.752-28.8 28.752 0 0 0 0 0 0v0zM470.288 306.776c-0.026-0.421-0.374-0.752-0.799-0.752-0.001 0-0.001 0-0.002 0v0h-75.888c-0.415 0-0.752 0.337-0.752 0.752v0 35.624c0 0.415 0.337 0.752 0.752 0.752v0h75.888c0 0 0.001 0 0.001 0 0.425 0 0.772-0.331 0.798-0.75v-0.002zM630.4 371.144h-75.856c-15.869-0.023-28.728-12.876-28.76-28.741v-35.627c0.027-15.871 12.888-28.729 28.758-28.752h75.858c0 0 0 0 0 0 15.886 0 28.768 12.862 28.8 28.741v35.635c-0.032 15.882-12.914 28.744-28.8 28.744 0 0 0 0 0 0v0zM631.152 306.768c0-0.415-0.337-0.752-0.752-0.752v0h-75.856c-0.409 0.020-0.735 0.344-0.76 0.75v35.634c0.025 0.408 0.351 0.732 0.758 0.752h75.858c0.415 0 0.752-0.337 0.752-0.752v0zM791.416 371.144h-75.896c-15.866-0.027-28.72-12.879-28.752-28.741v-35.627c0.027-15.868 12.884-28.725 28.749-28.752h75.899c15.868 0.027 28.725 12.884 28.752 28.749v35.627c-0.027 15.868-12.884 28.725-28.749 28.752h-0.003zM792.168 306.776c0-0.415-0.337-0.752-0.752-0.752v0h-75.896c-0.415 0-0.752 0.337-0.752 0.752v0 35.624c0 0.415 0.337 0.752 0.752 0.752v0h75.896c0.415 0 0.752-0.337 0.752-0.752v0zM217.832 531.84h111.296c7.732 0 14 6.268 14 14s-6.268 14-14 14v0h-111.296c-7.732 0-14-6.268-14-14s6.268-14 14-14v0zM217.832 467.32h167.28c7.732 0 14 6.268 14 14s-6.268 14-14 14v0h-167.28c-7.732 0-14-6.268-14-14s6.268-14 14-14v0z" />
<glyph unicode="&#xe90b;" glyph-name="customer-service-agent" d="M644 372.8h23.2c26.4 0 48.8 20 50.4 46.4 25.6 8 43.2 32 43.2 59.2v101.6c0 133.6-108.8 242.4-242.4 242.4h-13.6c-133.6 0-242.4-108.8-242.4-242.4v-100.8c0-34.4 28-62.4 62.4-62.4h28.8c14.4-35.2 40-64 72-83.2v-25.6l-33.6-20.8c-64.8-20.8-108.8-80-108.8-148v-51.2c0-8 6.4-13.6 13.6-14.4h430.4c8 0 14.4 6.4 14.4 14.4v51.2c0 68-44 128-108.8 148l-33.6 20.8v25.6c16.8 9.6 32 23.2 44.8 39.2zM667.2 400.8s-1.6 0-4 0c2.4 4.8 5.6 10.4 7.2 16h18.4c-3.2-9.6-12-16-21.6-16zM733.6 478.4c0-19.2-15.2-34.4-34.4-34.4h-19.2c2.4 11.2 4 24.8 4 36.8v44h15.2c19.2 0 34.4-16 34.4-34.4zM290.4 580c0 118.4 96 214.4 214.4 214.4h13.6c118.4 0 214.4-96 214.4-214.4v-36.8c-4.8 3.2-8.8 5.6-14.4 7.2v4c0 110.4-89.6 200-200.8 200h-13.6c-110.4 0-200-89.6-200-200v-4c-4.8-1.6-9.6-4-14.4-7.2v36.8zM324.8 444c-19.2 0-34.4 15.2-34.4 34.4 0 4 0 5.6 0 16 1.6 16.8 16 30.4 34.4 30.4h16v-44c0-12.8 1.6-24.8 4-36.8zM341.6 556.8c-0.8-0.8-0.8-2.4-0.8-3.2h-8v0.8c0 95.2 77.6 172 172.8 172h13.6c95.2 0 172-77.6 172.8-172v-0.8h-8v27.2c0 10.4-10.4 16.8-19.2 12.8-28-12-56.8-20.8-86.4-28-84-20-165.6-20-218.4 0-7.2 1.6-15.2-1.6-18.4-8.8zM437.6 282.4l52.8-56-44-31.2-30.4 74.4zM453.6 305.6v14.4c37.6-13.6 78.4-13.6 116.8 0v-14.4c-80-83.2-52-54.4-58.4-60.8zM632.8 257.6c48-19.2 80-66.4 80-118.4v-36.8h-402.4v36.8c0 52 32 99.2 80 118.4l36-88.8c3.2-8 13.6-11.2 20.8-6.4 0.8 0.8 68.8 48 64 44.8 2.4-1.6 64.8-45.6 64-44.8 7.2-4.8 17.6-2.4 20.8 6.4zM608 269.6l-29.6-73.6-44 31.2c0.8 0.8 56 58.4 53.6 55.2zM368.8 481.6v51.2c57.6-15.2 136-13.6 216 5.6 24 5.6 48 12.8 71.2 21.6v-78.4c0-28.8-8.8-56.8-24.8-80.8h-71.2c-3.2 12.8-15.2 22.4-28.8 22.4h-37.6c-16.8 0-29.6-13.6-29.6-29.6v-12.8c0-16.8 13.6-29.6 29.6-29.6h37.6c13.6 0 25.6 8.8 28.8 22.4h45.6c-92-80.8-236.8-15.2-236.8 108zM532.8 392.8v-12.8c0-0.8-0.8-1.6-1.6-1.6h-37.6c-0.8 0-1.6 0.8-1.6 1.6v12.8c0 0.8 0.8 1.6 1.6 1.6h37.6c0.8 0 1.6-0.8 1.6-1.6z" />
<glyph unicode="&#xe90c;" glyph-name="damaged-package" d="M152.8 144l264.8 20 212.8-19.2c37.6-66.4 121.6-90.4 188-52.8s90.4 121.6 52.8 188c-20 36-56 61.6-96.8 68l-14.4 65.6 57.6 252.8c0.8 4 0 8-1.6 10.4l-52.8 81.6c-0.8 0.8-1.6 2.4-2.4 3.2l-63.2 55.2c-2.4 2.4-5.6 3.2-8.8 3.2h-420.8c-7.2 0-12.8-4.8-13.6-12l-8-52.8c-22.4-16.8 56 40.8-102.4-75.2-4-3.2-6.4-8.8-5.6-14.4l57.6-252.8-57.6-252.8c-2.4-8.8 5.6-16.8 14.4-16zM860.8 201.6c-5.6-56.8-52.8-99.2-109.6-99.2-60.8 0-110.4 49.6-110.4 110.4s49.6 110.4 110.4 110.4c64.8-0.8 116-56.8 109.6-121.6zM682.4 792.8l57.6-50.4 37.6-58.4h-200l0.8 46.4c0 1.6 0 4-0.8 5.6l-23.2 57.6h128zM577.6 524.8h-186.4l13.6 130.4h147.2zM436 792.8h88.8l25.6-64.8-0.8-44h-135.2l21.6 48.8c0.8 1.6 1.6 4 1.6 6.4zM267.2 736.8c3.2 2.4 4.8 5.6 5.6 9.6l7.2 46.4h128l1.6-52-25.6-57.6h-188.8zM223.2 410.4c0.8 2.4 0.8 4 0 6.4l-54.4 239.2h207.2l-15.2-143.2c-0.8-8 5.6-15.2 13.6-15.2h219.2c8.8 0 15.2 8 13.6 16.8l-28 141.6h205.6l-54.4-239.2c-0.8-2.4-0.8-4 0-6.4l13.6-60c-76-2.4-135.2-66.4-132.8-142.4 0-12 2.4-23.2 5.6-34.4l-197.6 18.4c-0.8 0-1.6 0-2.4 0l-247.2-19.2zM699.2 160.8c5.6-5.6 14.4-5.6 20 0l32 32 32-32c5.6-5.6 14.4-5.6 20 0s5.6 14.4 0 20l-32 32 32 32c5.6 5.6 5.6 14.4 0 20s-14.4 5.6-20 0l-32-32-32 32c-5.6 5.6-14.4 5.6-20 0s-5.6-14.4 0-20l32-32-32-32c-5.6-5.6-5.6-15.2 0-20z" />
<glyph unicode="&#xe90d;" glyph-name="delivery-box" d="M152 349.6c-8 0-14.4-6.4-14.4-14.4s6.4-14.4 14.4-14.4h74.4v-40c0-5.6 3.2-10.4 8-12.8l316-148.8c4-1.6 8-1.6 12 0l316 148.8c4.8 2.4 8 7.2 8 12.8v333.6c0 5.6-4 10.4-8 12.8-1.6 0.8-184 87.2-316 148.8-4 1.6-8 1.6-12 0l-316-148.8c-4-1.6-8-7.2-8-12.8v-75.2h-74.4c-8 0-14.4-6.4-14.4-14.4s6.4-14.4 14.4-14.4h74.4v-67.2h-32.8c-8 0-14.4-6.4-14.4-14.4s6.4-14.4 14.4-14.4h32.8v-67.2h-74.4zM858.4 290.4l-288-136v302.4c67.2 32-12-5.6 288 136zM839.2 614.4c-509.6-240.8 57.6 27.2-283.2-133.6l-124.8 59.2 283.2 133.6zM556 748l124.8-59.2-282.4-132.8-124.8 59.2zM254.4 321.6h70.4c8 0 14.4 6.4 14.4 14.4s-6.4 14.4-14.4 14.4h-70.4v65.6h92c8 0 14.4 6.4 14.4 14.4s-6.4 14.4-14.4 14.4h-92v67.2h24c8 0 14.4 6.4 14.4 14.4s-6.4 14.4-14.4 14.4h-24v53.6l288-136v-302.4l-288 136zM616 211.2l120 56c4.8 2.4 8 7.2 8 12.8v72c0 11.2-11.2 16.8-20 12.8l-119.2-56c-4.8-2.4-8-7.2-8-12.8v-72c-0.8-10.4 10.4-17.6 19.2-12.8zM624 287.2l91.2 43.2v-40.8l-91.2-44z" />
<glyph unicode="&#xe90e;" glyph-name="delivery-courier" d="M288 355.2c-64.8-20.8-108.8-80-108.8-148v-119.2c0-8 6.4-14.4 14.4-14.4h638.4c8 0 14.4 6.4 14.4 14.4v231.2c0 8-6.4 14.4-14.4 14.4h-259.2c-13.6 9.6-28.8 17.6-44.8 22.4l-33.6 20v25.6c32 18.4 56.8 46.4 71.2 80 36 0 65.6 29.6 65.6 65.6 0 16-5.6 31.2-16 43.2v31.2c0 110.4-89.6 200-200 200h-13.6c-110.4 0-200-89.6-200.8-200v-32c-10.4-12-16-27.2-16-43.2 0-36 29.6-65.6 65.6-65.6 14.4-33.6 39.2-61.6 71.2-80v-24.8s-33.6-20.8-33.6-20.8zM669.6 304.8h60.8v-52.8l-24.8 11.2c-4 1.6-8 1.6-11.2 0l-24.8-11.2zM582.4 304.8h59.2v-74.4c0-10.4 10.4-16.8 20-12.8l38.4 17.6 38.4-17.6c9.6-4 20 2.4 20 12.8v74.4h59.2v-203.2h-235.2zM529.6 325.6c8.8-3.2 17.6-8 24.8-13.6v-209.6h-347.2v104.8c0 52 32 99.2 80 118.4l36-88.8c3.2-8 13.6-11.2 20.8-6.4 21.6 15.2 67.2 47.2 64 44.8 24.8-16.8 61.6-43.2 64.8-44.8 7.2-4.8 16.8-1.6 20.8 6.4zM466.4 388v-14.4l-58.4-60.8-58.4 60.8v14.4c18.4-6.4 38.4-10.4 58.4-10.4s40 4 58.4 10.4zM504 337.6l-29.6-73.6-44 31.2c0.8 0.8 40 41.6 53.6 55.2zM603.2 547.2c0-17.6-12-32-28.8-36.8 3.2 12.8 4.8 25.6 4.8 39.2v32.8c14.4-6.4 24-20 24-35.2zM212.8 547.2c0 15.2 9.6 29.6 24 35.2v-32.8c0-12.8 1.6-26.4 4.8-39.2-16.8 4-28.8 19.2-28.8 36.8zM236.8 619.2v-8c-2.4-0.8-5.6-1.6-8-2.4v12.8c0 95.2 77.6 172 172 172h13.6c95.2 0 172-77.6 172-172v-12.8c-2.4 0.8-4.8 1.6-8 2.4v36.8c0 10.4-10.4 16.8-19.2 12.8-28-12-56.8-20.8-86.4-28-84-20-165.6-20-218.4 0-8 3.2-17.6-4-17.6-13.6zM272.8 500.8c-5.6 15.2-8 32-8 48.8v50.4c57.6-15.2 136-13.6 216 5.6 24 5.6 48 12.8 71.2 21.6v-78.4c0-16.8-3.2-32.8-8-48.8-20.8-56.8-74.4-95.2-135.2-95.2-60 0.8-115.2 38.4-136 96zM333.6 349.6l52.8-56-44-31.2-29.6 73.6z" />
<glyph unicode="&#xe90f;" glyph-name="delivery-truck" d="M400 476.8l41.6 41.6c5.6 5.6 5.6 14.4 0 20s-14.4 5.6-20 0l-32-32-15.2 15.2c-5.6 5.6-14.4 5.6-20 0s-5.6-14.4 0-19.2l25.6-25.6c5.6-4.8 15.2-4.8 20 0zM398.4 408.8c54.4 0 99.2 44 99.2 99.2 0 56-45.6 99.2-99.2 99.2-54.4 0-99.2-44-99.2-99.2 0-53.6 44-99.2 99.2-99.2zM398.4 578.4c50.4 0 85.6-52 64.8-99.2-16-36-57.6-52-93.6-36.8-25.6 12-41.6 37.6-41.6 65.6 0 39.2 31.2 70.4 70.4 70.4zM346.4 282.4c0 10.4-8.8 19.2-19.2 19.2s-19.2-8.8-19.2-19.2 8.8-19.2 19.2-19.2c10.4-0.8 19.2 8 19.2 19.2zM770.4 282.4c0 10.4-8.8 19.2-19.2 19.2s-19.2-8.8-19.2-19.2 8.8-19.2 19.2-19.2c10.4-0.8 19.2 8 19.2 19.2zM630.4 692h-478.4c-8 0-14.4-6.4-14.4-14.4v-396c0-8 6.4-14.4 14.4-14.4h98.4c8-42.4 48-70.4 91.2-63.2 32 5.6 57.6 31.2 63.2 63.2h270.4c8-42.4 48-70.4 91.2-63.2 32 5.6 57.6 31.2 63.2 63.2h44c8 0 13.6 6.4 14.4 14.4v154.4c0 2.4 0 4-1.6 6.4-3.2 5.6-88 180-88 180-2.4 4.8-7.2 8-12.8 8h-140.8v48c0 7.2-6.4 13.6-14.4 13.6zM250.4 296h-84v36h100.8c-8.8-9.6-14.4-22.4-16.8-36zM327.2 232c-28 0-50.4 22.4-50.4 50.4s22.4 50.4 50.4 50.4 50.4-22.4 50.4-50.4-23.2-50.4-50.4-50.4zM616.8 296h-212.8c-2.4 13.6-8 25.6-16.8 36h229.6zM616.8 360.8h-450.4v303.2h450.4zM751.2 232c-28 0-50.4 22.4-50.4 50.4s22.4 50.4 50.4 50.4 50.4-22.4 50.4-50.4-22.4-50.4-50.4-50.4zM858.4 296h-29.6c-8 42.4-48.8 70.4-91.2 63.2-32-5.6-56.8-31.2-63.2-63.2h-29.6v126.4h213.6zM775.2 601.6l74.4-152h-204.8v152z" />
<glyph unicode="&#xe910;" glyph-name="discount" d="M856.8 647.2c-19.2 34.4-80 30.4-96.8 48.8-19.2 21.6-15.2 77.6-48.8 96.8-32.8 19.2-81.6-12-108.8-6.4-24 5.6-51.2 60-90.4 60-40.8 0-64.8-53.6-90.4-60-24.8-8-73.6 26.4-108.8 6.4-34.4-19.2-30.4-80-48.8-96.8-21.6-19.2-77.6-15.2-96.8-48.8-19.2-32.8 12-81.6 6.4-108.8-5.6-24-60-51.2-60-90.4 0-40.8 53.6-64.8 60-90.4 8-24.8-26.4-73.6-6.4-108.8 19.2-34.4 77.6-29.6 96.8-48.8s14.4-77.6 48.8-96.8c32.8-19.2 81.6 12 108.8 6.4 24-5.6 51.2-60 90.4-60 40.8 0 65.6 53.6 90.4 60 24.8 8 73.6-26.4 108.8-6.4 34.4 19.2 29.6 77.6 48.8 96.8s77.6 14.4 96.8 48.8c19.2 32.8-12 81.6-6.4 108.8 5.6 24 60 51.2 60 90.4 0 40.8-53.6 64.8-60 90.4-8 24.8 26.4 73.6 6.4 108.8zM881.6 448c0-24.8-50.4-49.6-58.4-83.2-9.6-36 21.6-83.2 9.6-101.6-11.2-19.2-68-17.6-92.8-42.4-25.6-25.6-23.2-81.6-42.4-92.8s-67.2 18.4-101.6 9.6c-34.4-9.6-60-58.4-83.2-58.4-24.8 0-49.6 50.4-83.2 58.4-29.6 9.6-84-20.8-101.6-9.6-19.2 11.2-17.6 68-42.4 92.8-25.6 25.6-81.6 23.2-92.8 42.4s18.4 66.4 9.6 101.6c-9.6 34.4-58.4 60-58.4 83.2 0 24.8 50.4 49.6 58.4 83.2 8.8 33.6-20.8 84-9.6 101.6 11.2 19.2 68 17.6 92.8 42.4 25.6 25.6 23.2 81.6 42.4 92.8s67.2-18.4 101.6-9.6c34.4 9.6 60 58.4 83.2 58.4 24.8 0 49.6-50.4 83.2-58.4 33.6-8.8 84 20.8 101.6 9.6 19.2-11.2 17.6-68 42.4-92.8 25.6-25.6 81.6-23.2 92.8-42.4s-18.4-67.2-9.6-101.6c9.6-34.4 58.4-60 58.4-83.2zM503.2 534.4c0 31.2-25.6 56.8-56.8 56.8s-56.8-25.6-56.8-56.8c0-32 25.6-56.8 56.8-56.8s56.8 25.6 56.8 56.8zM417.6 533.6c0 16 13.6 28.8 28.8 28.8 16 0 28.8-12.8 28.8-28.8s-12.8-28.8-28.8-28.8-28.8 12.8-28.8 28.8zM634.4 361.6c0 32-25.6 56.8-56.8 56.8s-56.8-25.6-56.8-56.8 25.6-56.8 56.8-56.8 56.8 25.6 56.8 56.8zM548.8 362.4c0 16 12.8 28.8 28.8 28.8s28.8-12.8 28.8-28.8-13.6-28.8-28.8-28.8c-16 0-28.8 12.8-28.8 28.8zM427.2 322.4l189.6 232c5.6 6.4 4.8 15.2-1.6 20-5.6 4.8-14.4 4-20-1.6l-189.6-232c-4.8-5.6-4-15.2 1.6-20 4-4 13.6-4.8 20 1.6z" />
<glyph unicode="&#xe911;" glyph-name="ecommerce" d="M808 813.6h-592c-44 0-80-36-80-80v-380.8c0-44 36-80 80-80h211.2l-10.4-77.6h-53.6c-32.8 0-59.2-26.4-59.2-59.2v-28.8c0-8 6.4-13.6 13.6-14.4h386.4c8 0 14.4 6.4 14.4 14.4v28.8c0 32.8-26.4 59.2-59.2 59.2h-53.6l-10.4 77.6h212.8c44 0 80 36 80 80v380.8c-0.8 44.8-36 80-80 80zM660 167.2c16.8 0 31.2-13.6 31.2-31.2v-14.4h-358.4v14.4c0 16.8 13.6 31.2 31.2 31.2zM444.8 195.2l10.4 77.6h112.8l10.4-77.6zM808 300.8h-592c-28.8 0-52 23.2-52 52v380.8c0 28.8 23.2 52 52 52h592c28.8 0 52-23.2 52-52v-380.8c-0.8-28.8-24-52-52-52zM655.2 648h-234.4l-4.8 16.8c-4.8 17.6-20.8 30.4-39.2 30.4h-57.6c-8 0-14.4-6.4-14.4-14.4s6.4-14.4 14.4-14.4h57.6c5.6 0 11.2-4 12-9.6 7.2-37.6 29.6-160.8 29.6-160.8-20.8-4.8-34.4-25.6-29.6-47.2 4-17.6 20-30.4 38.4-30.4h4.8c0-2.4-0.8-6.4-0.8-10.4 0-21.6 17.6-39.2 39.2-39.2s39.2 17.6 39.2 39.2c0 4-0.8 7.2-1.6 11.2h51.2c-0.8-3.2-1.6-7.2-1.6-11.2 0-21.6 16.8-39.2 38.4-40 21.6 0 39.2 16.8 40 38.4 0 4-0.8 8.8-1.6 12.8 7.2 1.6 12.8 8.8 11.2 16-1.6 6.4-7.2 11.2-13.6 11.2h-204c-6.4 0-11.2 4.8-11.2 11.2s4.8 11.2 11.2 11.2h202.4c7.2 0 12.8 5.6 13.6 12l24.8 149.6c1.6 9.6-4.8 17.6-13.6 17.6zM596 419.2c6.4 0 11.2-4.8 11.2-11.2s-4.8-11.2-11.2-11.2c-6.4 0-11.2 4.8-11.2 11.2s5.6 11.2 11.2 11.2zM470.4 419.2c6.4 0 11.2-4.8 11.2-11.2s-4.8-11.2-11.2-11.2-11.2 4.8-11.2 11.2 4.8 11.2 11.2 11.2zM619.2 497.6h-172l-4 23.2h179.2zM627.2 549.6h-188l-3.2 18.4h194.4zM635.2 596h-204l-4 23.2h212z" />
<glyph unicode="&#xe912;" glyph-name="exchange" d="M872 368.8h-499.2v56c0 35.2-43.2 52.8-68 28l-155.2-155.2c-15.2-15.2-15.2-40.8 0-56l155.2-155.2c24.8-24.8 68-7.2 68 28v56h328c102.4 0 184.8 83.2 184.8 184.8 0.8 7.2-5.6 13.6-13.6 13.6zM700.8 197.6h-341.6c-8 0-14.4-6.4-14.4-14.4v-69.6c0-6.4-5.6-12-12-12-3.2 0-6.4 1.6-8 3.2l-155.2 156c-4.8 4.8-4.8 12 0 16.8l155.2 155.2c4.8 4.8 12 4.8 16.8 0 2.4-2.4 3.2-4.8 3.2-8v-69.6c0-8 6.4-14.4 14.4-14.4h498.4c-7.2-80.8-75.2-143.2-156.8-143.2zM874.4 651.2l-155.2 156c-15.2 15.2-40.8 15.2-56 0-7.2-7.2-12-17.6-12-28v-56h-328c-102.4 0-184.8-83.2-184.8-184.8 0-8 6.4-13.6 13.6-14.4h499.2v-56c0-35.2 43.2-52.8 68-28l155.2 155.2c15.2 15.2 15.2 40.8 0 56zM854.4 615.2l-155.2-155.2c-4.8-4.8-12-4.8-16.8 0-2.4 2.4-3.2 4.8-3.2 8v69.6c0 8-6.4 13.6-14.4 14.4h-498.4c7.2 80.8 75.2 143.2 156 143.2h342.4c8 0 13.6 6.4 14.4 14.4v69.6c0 6.4 5.6 12 12 12 3.2 0 6.4-1.6 8-3.2l155.2-156c4.8-4.8 4.8-12 0-16.8z" />
<glyph unicode="&#xe913;" glyph-name="guaranteed" d="M832 317.2h-118.96v450.76c-0.032 29.83-24.203 54.004-54.029 54.040h-466.971c-29.833-0.032-54.008-24.207-54.040-54.037v-593.483c0.064-55.468 45.012-100.416 100.474-100.48h547.046c0.312 0 0.592 0.072 0.888 0.088s0.472-0.072 0.728-0.072h0.264c54.904 2.134 98.604 47.159 98.604 102.391 0 0.332-0.002 0.664-0.005 0.995v-0.051 85.848c-0.055 29.801-24.199 53.945-53.995 54h-0.005zM238.48 102c-40.009 0.050-72.43 32.47-72.48 72.475v593.485c0.014 14.376 11.664 26.026 26.039 26.040h466.969c14.373-0.018 26.018-11.667 26.032-26.039v-593.481c0-0.021 0-0.047 0-0.072 0-28.456 11.867-54.14 30.923-72.373l0.037-0.035zM858 177.352c0.005-0.318 0.008-0.693 0.008-1.069 0-39.926-31.477-72.501-70.969-74.261l-0.159-0.006c-0.232 0-0.456-0.064-0.696-0.080s-0.432 0.064-0.664 0.064c-40.009 0.050-72.43 32.47-72.48 72.475v114.725h118.96c14.345-0.036 25.964-11.655 26-25.997v-0.003zM403.768 547.512c2.533-2.536 6.033-4.104 9.9-4.104s7.367 1.569 9.9 4.104v0l45.816 45.832c2.533 2.532 4.1 6.031 4.1 9.896 0 7.728-6.265 13.992-13.992 13.992-3.863 0-7.36-1.565-9.892-4.096l-35.928-35.928-18.4 18.4c-2.535 2.543-6.042 4.117-9.916 4.117-7.732 0-14.001-6.268-14.001-14.001 0-3.858 1.561-7.352 4.085-9.884v0zM394.856 448.232l21.84-9.752c1.678-0.768 3.641-1.216 5.708-1.216s4.030 0.448 5.796 1.251l-0.088-0.036 21.84 9.752c52.002 23.672 87.511 75.169 87.544 134.964v90.1c0 0.003 0 0.006 0 0.009 0 6.042-3.828 11.191-9.191 13.152l-0.097 0.031-101.088 36.112c-1.403 0.509-3.023 0.804-4.712 0.804s-3.309-0.295-4.811-0.835l0.099 0.031-101.088-36.112c-5.461-1.995-9.288-7.145-9.288-13.189 0-0.001 0-0.002 0-0.003v0-90.096c0.039-59.793 35.542-111.284 86.611-134.582l0.925-0.378zM335.32 663.44l87.080 31.104 87.088-31.112v-80.232c-0.032-48.467-28.808-90.205-70.202-109.093l-0.75-0.307-16.136-7.2-16.128 7.2c-42.145 19.193-70.922 60.932-70.952 109.396v0.004zM584.040 378.984h-323.24c-7.732 0-14-6.268-14-14s6.268-14 14-14v0h323.24c7.732 0 14 6.268 14 14s-6.268 14-14 14v0zM580.344 292.712h-315.864c-7.732 0-14-6.268-14-14s6.268-14 14-14v0h315.864c7.732 0 14 6.268 14 14s-6.268 14-14 14v0zM422.4 206.448h-157.92c-7.732 0-14-6.268-14-14s6.268-14 14-14v0h157.92c7.732 0 14 6.268 14 14s-6.268 14-14 14v0zM580.344 206.448h-78.968c-7.732 0-14-6.268-14-14s6.268-14 14-14v0h78.968c7.732 0 14 6.268 14 14s-6.268 14-14 14v0z" />
<glyph unicode="&#xe914;" glyph-name="laptop" d="M892 303.2h-45.6v368.8c0 36.8-29.6 66.4-66.4 66.4h-536c-36.8 0-66.4-29.6-66.4-66.4v-368.8h-45.6c-8 0-13.6-6.4-14.4-14.4v-48c0-39.2 32-71.2 71.2-71.2h646.4c39.2 0 70.4 32 71.2 71.2v48c-0.8 8-6.4 14.4-14.4 14.4zM205.6 672c0 21.6 17.6 38.4 38.4 38.4h536c21.6 0 38.4-17.6 38.4-38.4v-368.8h-612.8zM589.6 275.2v-11.2c0-7.2-5.6-12.8-12.8-12.8h-130.4c-7.2 0-12.8 5.6-12.8 12.8v11.2zM835.2 199.2h-646.4c-24 0-43.2 19.2-43.2 43.2v33.6h260v-12c0-22.4 18.4-40.8 40.8-40.8h130.4c22.4 0 40.8 18.4 40.8 40.8v11.2h260v-33.6c0-23.2-19.2-42.4-42.4-42.4zM758.4 682.4h-492.8c-17.6 0-32-14.4-32-32v-288c0-17.6 14.4-32 32-32h493.6c17.6 0 32 14.4 32 32v288c-0.8 18.4-15.2 32-32.8 32zM762.4 363.2c0-2.4-1.6-4-4-4h-492.8c-2.4 0-4 1.6-4 4v288c0 2.4 1.6 4 4 4h493.6c2.4 0 4-1.6 4-4v-288z" />
<glyph unicode="&#xe915;" glyph-name="location" d="M236.8 546.4c0-80.8 44.8-184 133.6-308 40.8-56 84.8-110.4 132-160.8 5.6-5.6 14.4-5.6 20 0 47.2 50.4 91.2 104 132 160.8 88.8 123.2 133.6 227.2 133.6 308 0 152-123.2 275.2-275.2 275.2-152.8 0.8-276-122.4-276-275.2zM512 794.4c136.8 0 247.2-111.2 247.2-247.2 0-159.2-200-386.4-247.2-438.4-48 52-247.2 279.2-247.2 438.4 0 136 110.4 247.2 247.2 247.2zM512 407.2c77.6 0 140 62.4 140 140s-62.4 140-140 140-140-62.4-140-140 62.4-140 140-140zM512 658.4c61.6 0 112-50.4 112-112s-50.4-112-112-112-112 50.4-112 112c0 62.4 50.4 112 112 112z" />
<glyph unicode="&#xe916;" glyph-name="money" d="M872 224c8 0 14.4 6.4 14.4 14.4v420c0 8-6.4 14.4-14.4 14.4h-720c-8 0-13.6-6.4-14.4-14.4v-420.8c0-8 6.4-13.6 14.4-14.4h720zM166.4 644h692v-392.8h-692zM268 302.4c0-8 6.4-13.6 14.4-14.4h459.2c8 0 14.4 6.4 14.4 14.4 0 28.8 23.2 52 52 52 8 0 14.4 6.4 14.4 14.4v158.4c0 8-6.4 14.4-14.4 14.4-28.8 0-52 23.2-52 52 0 8-6.4 14.4-14.4 14.4h-459.2c-8 0-13.6-6.4-14.4-14.4 0-28.8-23.2-52-52-52-8 0-13.6-6.4-14.4-14.4v-158.4c0-8 6.4-13.6 14.4-14.4 28.8 0 52-23.2 52-52zM230.4 514.4c33.6 5.6 59.2 32 64.8 64.8h433.6c5.6-33.6 32-59.2 64.8-64.8v-132.8c-33.6-5.6-59.2-32-64.8-64.8h-433.6c-5.6 33.6-32 59.2-64.8 64.8zM610.4 448c0 54.4-44 98.4-98.4 98.4s-97.6-44-97.6-98.4 44-97.6 98.4-98.4c53.6 0 97.6 44 97.6 98.4zM442.4 448c0 38.4 31.2 69.6 70.4 69.6 38.4 0 70.4-31.2 70.4-70.4 0-38.4-31.2-70.4-70.4-70.4s-70.4 32.8-70.4 71.2z" />
<glyph unicode="&#xe917;" glyph-name="money1" d="M539.2 98.4l324 324c16.8 16.8 25.6 40 24.8 64l-12 243.2c-2.4 43.2-36.8 78.4-80 80l-242.4 12c-24 0.8-47.2-8-64-24.8l-324.8-324c-32.8-32.8-32.8-86.4 0-120l254.4-254.4c32.8-32.8 86.4-32.8 120 0zM184.8 453.6l324 324c12 12 26.4 16.8 43.2 16.8l242.4-12c28.8-1.6 52-24.8 53.6-53.6l12-242.4c0.8-16.8-5.6-32.8-16.8-44l-324-324c-22.4-22.4-57.6-22.4-80 0l-254.4 255.2c-22.4 22.4-22.4 57.6 0 80zM796 662.4c18.4 18.4 18.4 49.6 0 68-8.8 8.8-20.8 13.6-33.6 13.6-26.4 0-48-21.6-48-48s21.6-48 48-48c12.8 0 24.8 4.8 33.6 14.4zM748 682.4c-8 8-8 20.8 0 28.8s20.8 8 28.8 0c7.2-8.8 7.2-21.6-0.8-28.8s-20.8-7.2-28 0zM353.6 463.2c5.6-5.6 13.6-5.6 19.2 0s5.6 14.4 0 20l-36 36.8c-5.6 5.6-14.4 5.6-20 0-25.6-25.6-48-48-73.6-73.6-5.6-5.6-5.6-14.4 0-20s14.4-5.6 20 0l26.4 26.4s20-20 26.4-26.4c5.6-4.8 15.2-5.6 20.8 0s5.6 14.4 0 20l-26.4 26.4 16.8 16.8zM355.2 316c4.8-2.4 15.2 0 17.6 8l12.8 34.4c4.8-0.8 8-2.4 12-2.4 6.4 0 12.8 2.4 17.6 7.2l20.8 20.8c9.6 9.6 9.6 25.6 0 35.2l-28.8 28.8c-5.6 5.6-14.4 5.6-20 0-7.2-7.2 27.2 26.4-72.8-72-5.6-5.6-5.6-14.4 0-20s14.4-5.6 20 0l26.4 26.4 3.2-3.2-16.8-45.6c-2.4-7.2 0.8-15.2 8-17.6zM397.6 419.2l16.8-16.8-16.8-16.8-16.8 16.8zM494.4 322.4c5.6-5.6 14.4-5.6 20 0s5.6 14.4 0 20l-28.8 28.8c-9.6 9.6-25.6 9.6-35.2 0-20-20-37.6-37.6-57.6-57.6-9.6-9.6-9.6-25.6 0-35.2l28.8-28.8c5.6-5.6 13.6-5.6 19.2 0s5.6 14.4 0 20l-25.6 25.6 16.8 16.8 26.4-26.4c2.4-2.4 6.4-4 9.6-4s7.2 1.6 9.6 4c5.6 5.6 5.6 14.4 0 20l-26.4 26.4 16.8 16.8zM564.8 251.2c5.6-5.6 14.4-5.6 20 0s5.6 14.4 0 20l-28 28.8c-9.6 9.6-26.4 9.6-35.2 0-5.6-5.6 21.6 21.6-57.6-58.4-9.6-9.6-9.6-25.6 0-35.2l28.8-28.8c5.6-5.6 13.6-5.6 19.2 0s5.6 14.4 0 20l-26.4 26.4 16.8 16.8 26.4-26.4c5.6-5.6 13.6-5.6 19.2 0s5.6 14.4 0 20l-26.4 26.4 16.8 16.8zM565.6 459.2c-6.4-6.4-17.6-6.4-24.8 0-0.8 0.8-39.2 39.2-38.4 38.4-5.6 5.6-14.4 5.6-20 0s-5.6-14.4 0-20l20-20-14.4-16c-5.6-5.6-5.6-14.4 0-20s13.6-5.6 19.2 0l15.2 15.2c8-7.2 19.2-12 30.4-12 12 0 23.2 4.8 32 13.6l16 16c17.6 17.6 17.6 46.4 0 64l-16 16c-6.4 6.4-6.4 17.6 0 24.8l16 16c6.4 6.4 17.6 6.4 24.8 0l38.4-38.4c5.6-5.6 14.4-5.6 20 0 4.8 6.4 4.8 15.2 0 20.8l-20 20 15.2 15.2c5.6 5.6 5.6 14.4 0 20s-14.4 5.6-20 0l-15.2-15.2c-8 7.2-19.2 12-30.4 12-12 0-23.2-4.8-32-13.6l-16-16c-17.6-17.6-17.6-46.4 0-64l16-16c6.4-6.4 6.4-17.6 0-24.8z" />
<glyph unicode="&#xe918;" glyph-name="online-shopping" d="M724.168 258.12l-52.216-52.216-27.88 27.88c-2.534 2.534-6.034 4.101-9.9 4.101-7.732 0-14.001-6.268-14.001-14.001 0-3.866 1.567-7.366 4.101-9.9l37.776-37.776c2.533-2.536 6.033-4.104 9.9-4.104s7.367 1.569 9.9 4.104v0l62.152 62.112c2.534 2.534 4.101 6.034 4.101 9.9 0 7.732-6.268 14.001-14.001 14.001-3.866 0-7.366-1.567-9.9-4.101v0zM748.992 341.304l16.272 336.744c0.010 0.201 0.016 0.436 0.016 0.672 0 7.732-6.268 14-14 14 0 0 0 0 0 0h-124.488v34.4c-0.064 52.378-42.509 94.821-94.882 94.88h-98.838c-52.379-0.059-94.824-42.502-94.888-94.874v-34.406h-124.424c0 0 0 0 0 0-7.732 0-14-6.268-14-14 0-0.236 0.006-0.471 0.017-0.705l-0.001 0.033 20-414.728c2.765-56.576 49.308-101.4 106.321-101.4 0.022 0 0.045 0 0.067 0h229.245c21.986-50.337 71.334-84.878 128.75-84.878 77.368 0 140.088 62.72 140.088 140.088 0 53.663-30.173 100.278-74.479 123.806l-0.758 0.367zM366.184 727.12c0.045 36.921 29.966 66.839 66.884 66.88h98.836c36.922-0.041 66.843-29.959 66.888-66.876v-34.404h-232.608zM247.744 264.68l-19.296 400.040h109.736v-47.24c0-7.732 6.268-14 14-14s14 6.268 14 14v0 47.24h232.608v-47.24c0-7.732 6.268-14 14-14s14 6.268 14 14v0 47.24h109.8l-15.112-312.672c-11.314 3.299-24.312 5.197-37.752 5.197-77.17 0-139.728-62.558-139.728-139.728 0-9.767 1.002-19.3 2.909-28.502l-0.157 0.905h-220.592c-0.007 0-0.015 0-0.023 0-42.032 0-76.344 33.049-78.369 74.579l-0.007 0.181zM684.16 105.040c-48.83 0.001-90.37 31.213-105.758 74.775l-0.242 0.785c-3.904 10.758-6.161 23.175-6.161 36.119 0 0.141 0 0.282 0.001 0.423v-0.022c0.073 61.915 50.245 112.087 112.153 112.16h0.007c0.071 0 0.156 0 0.24 0 16.127 0 31.447-3.458 45.257-9.673l-0.697 0.281c39.94-17.735 67.29-57.049 67.29-102.752 0-61.907-50.184-112.093-112.090-112.096v0z" />
<glyph unicode="&#xe919;" glyph-name="online-store" d="M886.4 667.2c0 2.4-1.6 5.6-3.2 8-3.2 4-80 112.8-80 112.8-2.4 4-7.2 5.6-11.2 5.6h-560c-4.8 0-8.8-2.4-11.2-5.6 0 0-73.6-104-80-113.6-1.6-1.6-2.4-4-2.4-6.4v-34.4c0-43.2 30.4-77.6 72-84.8v-238.4c0-32.8 27.2-60 60-60h167.2l-8.8-57.6h-49.6c-24 0-43.2-19.2-43.2-43.2v-5.6c0-24 19.2-43.2 43.2-43.2h266.4c24 0 43.2 19.2 43.2 43.2v5.6c0 24-19.2 43.2-43.2 43.2h-49.6l-8.8 57.6h167.2c32.8 0 60 27.2 60 60v238.4c36 0 72.8 41.6 72.8 84 0 0-0.8 25.6-0.8 34.4zM660 149.6v-5.6c0-8-6.4-15.2-15.2-15.2h-266.4c-8 0-15.2 6.4-15.2 15.2v5.6c0 8 6.4 15.2 15.2 15.2h266.4c8.8 0 15.2-6.4 15.2-15.2zM568 192.8h-112l8.8 57.6h94.4zM786.4 548.8v-180.8h-548.8v180.8c24 4 44.8 17.6 58.4 38.4 14.4-22.4 40.8-39.2 71.2-39.2 28.8 0 56 14.4 72 39.2 25.6-40 79.2-51.2 118.4-25.6 10.4 6.4 18.4 15.2 25.6 25.6 16-24 43.2-39.2 72-39.2 31.2 0 56.8 15.2 72 38.4 14.4-20 35.2-33.6 59.2-37.6zM714.4 633.6c0-31.2-24-57.6-58.4-57.6-32 0-57.6 25.6-58.4 58.4v19.2h116zM453.6 652.8h116v-19.2c0-32-26.4-57.6-58.4-57.6-31.2 0-56.8 25.6-57.6 57.6zM556 766.4l12-85.6h-112l12 85.6zM425.6 633.6c0-32-25.6-57.6-58.4-58.4-33.6 0-57.6 28-57.6 57.6v19.2h116zM784.8 766.4l60-85.6h-107.2l-35.2 85.6zM672 766.4l35.2-85.6h-111.2l-12 85.6zM428 680.8h-111.2l35.2 85.6h88zM239.2 766.4h82.4l-35.2-85.6h-107.2zM166.4 633.6v19.2h116v-19.2c0-32-25.6-57.6-57.6-57.6-31.2 0-58.4 23.2-58.4 57.6zM754.4 278.4h-484.8c-17.6 0-32 14.4-32 32v29.6h548v-29.6c0.8-17.6-13.6-32-31.2-32zM800.8 575.2h-0.8c-32 0-57.6 26.4-57.6 57.6v19.2h116v-19.2c0-30.4-23.2-57.6-57.6-57.6zM552.8 436.8l-37.6 37.6h10.4c8 0 14.4 6.4 14.4 14.4s-6.4 14.4-14.4 14.4h-44c-8 0-14.4-6.4-14.4-14.4v-44c0-8 6.4-14.4 14.4-14.4s14.4 6.4 14.4 14.4v10.4l37.6-37.6c5.6-5.6 13.6-5.6 19.2 0 5.6 4.8 5.6 14.4 0 19.2z" />
<glyph unicode="&#xe91a;" glyph-name="packaging" d="M882.4 665.6l-128 151.2c-2.4 3.2-6.4 4.8-10.4 4.8h-464c-4 0-8-1.6-10.4-4.8l-128-151.2c-2.4-3.2-3.2-5.6-3.2-8.8v-565.6c0-8 6.4-13.6 13.6-14.4h720c8 0 13.6 6.4 14.4 14.4v565.6c0 3.2-1.6 6.4-4 8.8zM841.6 670.4h-224l-25.6 124h145.6zM432 642.4h160v-137.6h-160zM563.2 794.4l26.4-123.2h-154.4l26.4 123.2zM286.4 794.4h145.6l-26.4-123.2h-224zM858.4 104.8h-692v537.6h237.6v-151.2c0-8 6.4-14.4 14.4-14.4h188.8c8 0 14.4 6.4 14.4 14.4v151.2h237.6v-537.6zM612 274.4v-101.6c0-8 6.4-13.6 14.4-14.4h167.2c8 0 14.4 6.4 14.4 14.4v101.6c0 8-6.4 14.4-14.4 14.4h-168c-7.2 0-13.6-6.4-13.6-14.4zM640 260.8h139.2v-73.6h-139.2z" />
<glyph unicode="&#xe91b;" glyph-name="promotion" d="M664 743.2c-30.4 0-55.2-24.8-55.2-55.2v-4c-2.4-1.6-4-4-6.4-5.6-44-46.4-105.6-72-169.6-72h-160.8c-30.4 0-56.8-21.6-64-51.2-44.8-6.4-76-48.8-68.8-93.6 5.6-36 33.6-63.2 68.8-68.8 6.4-28 30.4-48 58.4-50.4v-134.4c0-30.4 24.8-55.2 55.2-55.2s55.2 24.8 55.2 55.2v133.6h55.2c64 0 125.6-26.4 169.6-72 1.6-2.4 4-4 6.4-5.6v-4c0-30.4 24-55.2 54.4-56 31.2 0 56 24.8 56 56v428c0.8 30.4-24 55.2-54.4 55.2zM166.4 473.6c0 24.8 16.8 46.4 40 52.8v-104.8c-24 6.4-40 27.2-40 52zM349.6 208c0-15.2-12-27.2-27.2-27.2s-27.2 12-27.2 27.2v133.6h55.2v-133.6zM388 369.6h-116c-20.8 0-37.6 16.8-37.6 37.6v132.8c0 20.8 16.8 37.6 37.6 37.6h116zM432.8 369.6h-16.8v208h16.8c64.8 0 127.2 24 176 67.2v-343.2c-48.8 44-111.2 68-176 68zM691.2 259.2c0-15.2-12-27.2-26.4-28-15.2 0-28 12-28 28v428.8c0 15.2 12 27.2 26.4 28 15.2 0 28-12 28-28zM872 488h-69.6c-8 0-14.4-6.4-14.4-14.4s6.4-14.4 14.4-14.4h69.6c8 0 14.4 6.4 14.4 14.4s-6.4 14.4-14.4 14.4zM771.2 646.4l69.6 25.6c7.2 2.4 11.2 10.4 8 17.6s-10.4 11.2-17.6 8l-69.6-25.6c-7.2-2.4-11.2-10.4-8.8-17.6s10.4-11.2 18.4-8zM840.8 276l-69.6 25.6c-7.2 2.4-15.2-0.8-17.6-8s0.8-15.2 8-17.6l69.6-25.6c7.2-2.4 15.2 0.8 17.6 8s-0.8 15.2-8 17.6z" />
<glyph unicode="&#xe91c;" glyph-name="qr-code" d="M152.8 581.6c8 0 14.4 6.4 14.4 14.4v179.2c0 10.4 8 18.4 18.4 18.4h180c8 0 14.4 6.4 14.4 14.4s-6.4 14.4-14.4 14.4h-180.8c-25.6 0-46.4-20.8-46.4-46.4v-180c0-8.8 6.4-14.4 14.4-14.4zM839.2 821.6h-180c-8 0-14.4-6.4-14.4-14.4s6.4-14.4 14.4-14.4h180c10.4 0 18.4-8 18.4-18.4v-180c0-8 6.4-14.4 14.4-14.4s14.4 6.4 14.4 14.4v180.8c-0.8 25.6-21.6 46.4-47.2 46.4zM364.8 102.4h-180c-10.4 0-18.4 8-18.4 18.4v180c0 8-6.4 14.4-14.4 14.4s-14.4-6.4-14.4-14.4v-180c0-25.6 20.8-46.4 46.4-46.4h180c8 0 14.4 6.4 14.4 14.4s-6.4 13.6-13.6 13.6zM872 314.4c-8 0-13.6-6.4-14.4-13.6v-180c0-10.4-8-18.4-18.4-18.4h-180c-8 0-14.4-6.4-14.4-14.4s6.4-14.4 14.4-14.4h180c25.6 0 46.4 20.8 46.4 46.4v180.8c0.8 8-5.6 13.6-13.6 13.6zM365.6 715.2h-89.6c-16.8 0-30.4-13.6-30.4-30.4v-89.6c0-8 6.4-14.4 14.4-14.4s14.4 6.4 14.4 14.4v89.6c0 0.8 0.8 2.4 2.4 2.4h89.6c8 0 14.4 6.4 14.4 14.4-1.6 7.2-8 13.6-15.2 13.6zM764.8 581.6c8 0 13.6 6.4 14.4 13.6v89.6c0 16.8-13.6 30.4-30.4 30.4h-89.6c-8 0-14.4-6.4-14.4-14.4s6.4-14.4 14.4-14.4h89.6c0.8 0 2.4-0.8 2.4-2.4v-89.6c0-7.2 6.4-12.8 13.6-12.8zM659.2 180.8h89.6c16.8 0 30.4 13.6 30.4 30.4v89.6c0 8-6.4 14.4-14.4 14.4s-14.4-6.4-14.4-14.4v-89.6c0-0.8-0.8-2.4-2.4-2.4h-88.8c-8 0-14.4-6.4-14.4-14.4s7.2-13.6 14.4-13.6zM364.8 208.8h-89.6c-0.8 0-2.4 0.8-2.4 2.4v89.6c0 8-6.4 14.4-14.4 14.4s-14.4-6.4-14.4-14.4v-89.6c0-16.8 13.6-30.4 30.4-30.4h89.6c8 0 14.4 6.4 14.4 14.4s-6.4 13.6-13.6 13.6zM840 494.4h-656c-25.6 0-46.4-20.8-46.4-46.4s20.8-46.4 46.4-46.4h656c25.6 0 46.4 20.8 46.4 46.4s-20.8 46.4-46.4 46.4zM840 430.4h-656c-9.6 0-18.4 8-18.4 18.4 0 9.6 8 18.4 18.4 18.4h656c9.6 0 18.4-8 18.4-18.4s-8.8-18.4-18.4-18.4z" />
<glyph unicode="&#xe91d;" glyph-name="quality" d="M520 360.8l115.2 115.2c16.8 16.8 16 43.2 0 59.2s-42.4 17.6-60 0l-84.8-85.6-41.6 41.6c-16 16.8-41.6 16-57.6 1.6-17.6-16-18.4-44-1.6-60.8l71.2-71.2c16.8-16 43.2-16 59.2 0zM408.8 472c5.6 5.6 14.4 5.6 20 0l51.2-51.2c5.6-5.6 14.4-5.6 20 0l95.2 95.2c5.6 5.6 14.4 5.6 20 0s5.6-15.2 0-20l-115.2-115.2c-5.6-5.6-14.4-5.6-20 0l-71.2 71.2c-5.6 5.6-5.6 14.4 0 20zM779.2 448c-0.8 147.2-120 266.4-267.2 267.2-147.2 0-267.2-119.2-267.2-267.2s120-267.2 267.2-267.2 267.2 120 267.2 267.2zM272.8 448c0 132 107.2 239.2 239.2 239.2s239.2-107.2 239.2-239.2c-0.8-132-107.2-238.4-239.2-239.2-132 0-239.2 107.2-239.2 239.2zM115.2 448c0-45.6 55.2-76.8 64.8-108 10.4-32.8-15.2-89.6 11.2-125.6 26.4-36.8 88.8-28.8 116-49.6 27.2-20 39.2-81.6 82.4-95.2 41.6-13.6 88 28.8 123.2 28.8 34.4 0 81.6-42.4 123.2-28.8 43.2 14.4 55.2 75.2 82.4 95.2 28 20 89.6 12.8 116 49.6 26.4 36 0 92.8 11.2 125.6 9.6 31.2 64.8 62.4 64.8 108s-55.2 76.8-64.8 108c-10.4 32.8 15.2 89.6-11.2 125.6-26.4 36.8-88.8 28.8-116 49.6-27.2 20-39.2 81.6-82.4 95.2-41.6 13.6-88-28.8-123.2-28.8s-81.6 42.4-123.2 28.8c-43.2-14.4-55.2-75.2-82.4-95.2-28-20-89.6-12.8-116-49.6-26.4-36 0-92.8-11.2-125.6-10.4-31.2-64.8-62.4-64.8-108zM204 547.2c12.8 39.2-10.4 93.6 7.2 117.6s76.8 19.2 110.4 43.2c32.8 24 45.6 82.4 75.2 91.2 28 8.8 72-29.6 114.4-29.6 41.6 0 86.4 39.2 114.4 29.6 28.8-9.6 42.4-68 75.2-91.2 32.8-24 92.8-18.4 110.4-43.2 17.6-24-5.6-78.4 7.2-117.6 12-37.6 64-68 64-99.2s-52-61.6-64-99.2c-12.8-39.2 10.4-93.6-7.2-117.6s-76.8-19.2-110.4-43.2c-32.8-24-45.6-82.4-75.2-91.2-28-8.8-72 29.6-114.4 29.6-41.6 0-86.4-39.2-114.4-29.6-28.8 9.6-42.4 68-75.2 91.2-32.8 24-92.8 18.4-110.4 43.2-17.6 24 5.6 78.4-7.2 117.6-12 37.6-64 68-64 99.2s51.2 61.6 64 99.2z" />
<glyph unicode="&#xe91e;" glyph-name="receipt" d="M872 317.2h-158.96v490.8c0 7.732-6.268 14-14 14v0h-547.040c-7.732 0-14-6.268-14-14v0-633.52c0.064-55.468 45.012-100.416 100.474-100.48h547.046c55.468 0.064 100.416 45.012 100.48 100.474v128.726c0 7.732-6.268 14-14 14v0zM238.48 102c-40.011 0.045-72.434 32.469-72.48 72.476v619.524h519.040v-619.52c0-0.017 0-0.038 0-0.058 0-28.46 11.867-54.148 30.923-72.386l0.037-0.035zM858 174.48c0-40.030-32.45-72.48-72.48-72.48s-72.48 32.45-72.48 72.48v0 114.72h144.96zM608.248 677.68h-43.136c-7.732 0-14-6.268-14-14s6.268-14 14-14v0h43.136c7.732 0 14 6.268 14 14s-6.268 14-14 14v0zM268.232 649.68h200.52c7.732 0 14 6.268 14 14s-6.268 14-14 14v0h-200.52c-7.732 0-14-6.268-14-14s6.268-14 14-14v0zM608.248 533.888h-340c-7.732 0-14-6.268-14-14s6.268-14 14-14v0h340c7.732 0 14 6.268 14 14s-6.268 14-14 14v0zM608.248 390.112h-170.008c-7.732 0-14-6.268-14-14s6.268-14 14-14v0h170.008c7.732 0 14 6.268 14 14s-6.268 14-14 14v0zM268.232 362.112h81.192c7.732 0 14 6.268 14 14s-6.268 14-14 14v0h-81.192c-7.732 0-14-6.268-14-14s6.268-14 14-14v0zM608.248 246.328h-49.896c-7.732 0-14-6.268-14-14s6.268-14 14-14v0h49.896c7.732 0 14 6.268 14 14s-6.268 14-14 14v0zM468.8 246.328h-200.56c-7.732 0-14-6.268-14-14s6.268-14 14-14v0h200.56c7.732 0 14 6.268 14 14s-6.268 14-14 14v0z" />
<glyph unicode="&#xe91f;" glyph-name="retail-store" d="M850.4 484.8c20 0 36 16 36 36v40c0 20-16 36-36 36h-159.2v28.8h4.8c29.6 0 53.6 24 53.6 53.6v88c0 29.6-24 53.6-53.6 53.6h-368c-29.6 0-53.6-24-53.6-53.6v-88.8c0-29.6 24-53.6 53.6-53.6h4.8v-28.8h-159.2c-20 0-36-16-36-36v-40c0-20 16-36 36-36h6.4v-382.4h-28c-8 0-14.4-6.4-14.4-14.4s6.4-14.4 14.4-14.4h720c8 0 14.4 6.4 14.4 14.4s-6.4 14.4-14.4 14.4h-28v383.2zM663.2 596h-32.8v28.8h32.8zM421.6 624.8h180v-28.8h-180zM302.4 678.4v88.8c0 14.4 11.2 25.6 25.6 25.6h368c14.4 0 25.6-11.2 25.6-25.6v-88.8c0-14.4-11.2-25.6-25.6-25.6h-368c-14.4 0-25.6 11.2-25.6 25.6zM360.8 624.8h32.8v-28.8h-32.8zM166.4 520.8v40c0 4 3.2 8 8 8h676c4 0 8-3.2 8-8v-40c0-4-3.2-8-8-8h-676.8c-4 0-7.2 3.2-7.2 8zM290.4 412h143.2v-309.6h-143.2zM816 102.4h-353.6v323.2c0 8-6.4 13.6-13.6 14.4h-172c-8 0-13.6-6.4-14.4-13.6v-324h-54.4v382.4h608zM526.4 233.6h220.8c8 0 13.6 6.4 14.4 13.6v178.4c0 8-6.4 13.6-13.6 14.4h-221.6c-8 0-13.6-6.4-14.4-13.6v-178.4c0.8-8 7.2-13.6 14.4-14.4 0 0.8 0 0.8 0 0zM540.8 412h192.8v-149.6h-192.8zM388 750.4c8 0 14.4 6.4 14.4 14.4s-6.4 14.4-14.4 14.4h-31.2c-15.2 0-28-12.8-28-28v-13.6c0-15.2 12.8-28 28-28h16.8v-13.6h-31.2c-8 0-14.4-6.4-14.4-14.4s6.4-14.4 14.4-14.4h31.2c15.2 0 28 12.8 28 28v13.6c0 15.2-12.8 28-28 28h-16.8v13.6zM485.6 778.4c-8 0-14.4-6.4-14.4-14.4v-28h-16.8v28c0 8-6.4 14.4-14.4 14.4s-14.4-6.4-14.4-14.4v-83.2c0-8 6.4-14.4 14.4-14.4s14.4 6.4 14.4 14.4v28h17.6v-28c0-8 6.4-14.4 14.4-14.4s14.4 6.4 14.4 14.4v83.2c-0.8 8.8-7.2 14.4-15.2 14.4zM568.8 778.4h-16.8c-15.2 0-28-12.8-28-28v-55.2c0-15.2 12.8-28 28-28h16.8c15.2 0 28 12.8 28 28v55.2c0.8 16-12 28-28 28zM568.8 695.2h-16.8v55.2h16.8zM666.4 778.4h-31.2c-8 0-14.4-6.4-14.4-14.4v-83.2c0-8 6.4-14.4 14.4-14.4s14.4 6.4 14.4 14.4v28h16.8c15.2 0 28 12.8 28 28v13.6c0.8 16-12 28-28 28zM667.2 736.8h-16.8v13.6h16.8z" />
<glyph unicode="&#xe920;" glyph-name="sale-tag" d="M771.2 790.4c8 0 4 0 0 0zM165.6 330.4l228.8-228.8c36.8-36.8 96.8-36.8 133.6 0l326.4 326.4c20.8 20.8 32 48.8 31.2 77.6l-2.4 207.2c-0.8 58.4-48 105.6-106.4 106.4l-207.2 3.2c-28.8 0-56.8-11.2-77.6-31.2l-326.4-327.2c-36.8-36.8-36.8-96.8 0-133.6zM185.6 444l326.4 326.4c15.2 15.2 35.2 23.2 56 23.2 141.6-2.4 189.6-3.2 203.2-3.2 4 0 8 0 0 0h4.8c43.2 0 78.4-35.2 78.4-78.4l3.2-207.2c0.8-20.8-8-41.6-23.2-56.8l-326.4-326.4c-25.6-25.6-68-25.6-93.6 0l-228.8 228.8c-25.6 25.6-25.6 68 0 93.6zM796.8 658.4c20.8 20.8 20.8 53.6 0 74.4-20.8 20-54.4 20-74.4 0-20.8-20.8-20.8-53.6 0-74.4s53.6-20.8 74.4 0zM742.4 712.8c9.6 9.6 24.8 9.6 34.4 0s9.6-25.6 0-34.4c-9.6-9.6-24.8-9.6-34.4 0s-9.6 24.8 0 34.4zM461.6 424c22.4 22.4 22.4 58.4 0 80.8s-58.4 22.4-80.8 0-22.4-58.4 0-80.8c19.2-20.8 55.2-24 80.8 0zM400 484.8c14.4 12.8 32 10.4 40.8 0 11.2-11.2 11.2-29.6 0-40.8s-29.6-11.2-40.8 0-11.2 29.6 0 40.8zM672.8 423.2c22.4 22.4 22.4 58.4 0 80.8-20 21.6-56.8 23.2-80 0-21.6-20-23.2-56.8 0-80 20-21.6 56-23.2 80-0.8zM612 484.8c12 12 31.2 12 40.8-0.8 11.2-11.2 11.2-29.6 0-40.8s-29.6-11.2-40.8 0c-12 12-12 29.6 0 41.6zM560.8 315.2c7.2 2.4 12 9.6 10.4 16.8l-60.8 272.8c-1.6 7.2-9.6 12-16.8 10.4s-12-9.6-10.4-16.8l60.8-272.8c2.4-8.8 11.2-12.8 16.8-10.4z" />
<glyph unicode="&#xe921;" glyph-name="search" d="M457.6 678.4c-78.4-78.4-78.4-206.4 0-285.6s206.4-78.4 285.6 0c78.4 78.4 78.4 206.4 0 285.6-79.2 79.2-207.2 79.2-285.6 0zM722.4 412.8c-68-68-177.6-68-245.6 0s-68 177.6 0 245.6 177.6 68 245.6 0c68-67.2 68-177.6 0-245.6zM800 736c-110.4 110.4-289.6 110.4-400 0-90.4-90.4-108.8-229.6-45.6-340.8l-185.6-185.6c-28.8-28.8-28-76 0.8-104.8 28.8-28 75.2-28 104 0l185.6 185.6c135.2-77.6 308-30.4 385.6 104.8 64 111.2 44.8 250.4-44.8 340.8zM780 356c-84-84.8-215.2-99.2-315.2-36-5.6 3.2-12.8 2.4-17.6-1.6l-193.6-193.6c-17.6-17.6-47.2-17.6-64.8 0s-17.6 47.2 0 64.8l193.6 193.6c4.8 4.8 5.6 12 1.6 17.6-74.4 119.2-38.4 276 80.8 351.2s276 38.4 351.2-80.8c62.4-100.8 48-231.2-36-315.2z" />
<glyph unicode="&#xe922;" glyph-name="shopping-bag" d="M882.184 664.736c-2.556 2.707-6.169 4.392-10.176 4.392-0.003 0-0.006 0-0.009 0h-171.504v45.936c-0.068 59.032-47.904 106.868-106.929 106.936h-163.119c-59.035-0.064-106.876-47.902-106.944-106.929v-45.943h-171.504c-7.732-0.005-13.999-6.275-13.999-14.008 0-0.281 0.008-0.561 0.025-0.838l-0.002 0.038 25.776-448.296c4.443-73.781 65.336-131.942 139.826-132h416.75c74.496 0.054 135.389 58.218 139.805 131.611l0.019 0.389 25.776 448.296c0.014 0.238 0.023 0.515 0.023 0.795 0 3.722-1.452 7.104-3.821 9.612l0.006-0.007zM351.504 715.064c0.055 43.576 35.367 78.886 78.939 78.936h163.117c43.575-0.050 78.886-35.361 78.936-78.931v-45.941h-320.992zM832.248 207.632c-3.556-59.027-52.273-105.556-111.868-105.6h-416.748c-59.601 0.044-108.32 46.572-111.865 105.288l-0.015 0.312-24.92 433.496h156.672v-88.272c0-7.732 6.268-14 14-14s14 6.268 14 14v0 88.272h320.992v-88.272c0-7.732 6.268-14 14-14s14 6.268 14 14v0 88.272h156.68z" />
<glyph unicode="&#xe923;" glyph-name="shopping-list" d="M742.752 743.76h-86.48v30c-0.005 7.73-6.27 13.995-14 14h-55.072c-14.623 21.035-38.67 34.632-65.892 34.632s-51.269-13.597-65.719-34.37l-0.173-0.262h-55.064c-7.732 0-14-6.268-14-14v0-30h-86.48c-32.946-0.036-59.644-26.734-59.68-59.676v-550.804c0.036-32.946 26.734-59.644 59.676-59.68h442.884c32.944 0.041 59.639 26.736 59.68 59.676v550.804c-0.041 32.944-26.736 59.639-59.676 59.68h-0.004zM414.352 759.76h48.848c0 0 0 0 0 0 5.284 0 9.884 2.927 12.267 7.248l0.037 0.072c8.966 16.396 26.094 27.331 45.776 27.331s36.81-10.935 45.64-27.060l0.136-0.271c2.418-4.393 7.017-7.32 12.299-7.32 0.002 0 0.004 0 0.005 0h48.88v-74h-213.888zM774.4 133.28c-0.023-17.487-14.193-31.657-31.678-31.68h-442.85c-17.489 0.018-31.662 14.191-31.68 31.678v550.802c0.023 17.487 14.193 31.657 31.678 31.68h86.482v-44c0-0.002 0-0.005 0-0.008 0-7.728 6.264-13.992 13.992-13.992 0.003 0 0.006 0 0.008 0h241.92c7.732 0 14 6.268 14 14v0 44h86.48c17.487-0.023 31.657-14.193 31.68-31.678v-0.002zM687.68 582.68h-174.232c-7.732 0-14-6.268-14-14s6.268-14 14-14v0h174.232c7.732 0 14 6.268 14 14s-6.268 14-14 14v0zM687.68 465.344h-174.232c-7.732 0-14-6.268-14-14s6.268-14 14-14h174.232c7.732 0 14 6.268 14 14s-6.268 14-14 14v0zM687.68 348h-174.232c-7.732 0-14-6.268-14-14s6.268-14 14-14v0h174.232c7.732 0 14 6.268 14 14s-6.268 14-14 14v0zM687.68 230.68h-174.232c-7.732 0-14-6.268-14-14s6.268-14 14-14v0h174.232c7.732 0 14 6.268 14 14s-6.268 14-14 14v0zM419.2 601.496l-35.928-35.936-18.472 18.44c-2.515 2.433-5.947 3.932-9.728 3.932-7.732 0-14-6.268-14-14 0-3.779 1.498-7.209 3.932-9.728l28.324-28.324c2.533-2.536 6.033-4.104 9.9-4.104s7.367 1.569 9.9 4.104v0l45.824 45.824c2.237 2.472 3.607 5.766 3.607 9.38 0 7.732-6.268 14-14 14-3.604 0-6.89-1.362-9.371-3.599l0.012 0.011zM419.2 484.16l-35.928-35.928-18.4 18.4c-2.549 2.638-6.119 4.276-10.072 4.276-7.732 0-14-6.268-14-14 0-3.951 1.636-7.519 4.268-10.064l28.332-28.316c2.533-2.536 6.033-4.104 9.9-4.104s7.367 1.569 9.9 4.104v0l45.824 45.808c2.537 2.537 4.106 6.041 4.106 9.912 0 7.742-6.276 14.018-14.018 14.018-3.871 0-7.375-1.569-9.912-4.106v0zM419.2 366.824l-35.928-35.928-18.4 18.4c-2.534 2.534-6.034 4.101-9.9 4.101-7.732 0-14.001-6.268-14.001-14.001 0-3.866 1.567-7.366 4.101-9.9v0l28.328-28.32c2.533-2.536 6.033-4.104 9.9-4.104s7.367 1.569 9.9 4.104v0l45.824 45.808c2.54 2.538 4.111 6.046 4.111 9.92 0 7.745-6.278 14.023-14.023 14.023-3.87 0-7.375-1.568-9.912-4.103v0zM419.2 249.496l-35.928-35.936-18.472 18.44c-2.515 2.433-5.947 3.932-9.728 3.932-7.732 0-14-6.268-14-14 0-3.779 1.498-7.209 3.932-9.728l28.324-28.324c2.535-2.53 6.035-4.094 9.9-4.094s7.365 1.564 9.9 4.095v0l45.824 45.824c2.237 2.472 3.607 5.766 3.607 9.38 0 7.732-6.268 14-14 14-3.604 0-6.89-1.362-9.371-3.599l0.012 0.011z" />
<glyph unicode="&#xe924;" glyph-name="smartphone" d="M686.032 822h-348.064c-31.081-0.036-56.268-25.223-56.304-56.301v-635.395c0.036-31.081 25.223-56.268 56.301-56.304h348.067c31.081 0.036 56.268 25.223 56.304 56.301v635.395c-0.036 31.081-25.223 56.268-56.301 56.304h-0.003zM613.072 794l-6.456-26.176c-1.555-6.183-7.065-10.688-13.628-10.688-0.007 0-0.014 0-0.021 0h-161.935c-0.006 0-0.013 0-0.020 0-6.563 0-12.073 4.505-13.607 10.591l-0.021 0.097-6.456 26.176zM714.336 130.304c-0.018-15.625-12.679-28.286-28.302-28.304h-348.066c-15.625 0.018-28.286 12.679-28.304 28.302v635.394c0.018 15.625 12.679 28.286 28.302 28.304h44.122l8.104-32.88c4.645-18.51 21.137-32 40.78-32 0.007 0 0.014 0 0.021 0h161.975c0.018 0 0.039 0 0.060 0 19.643 0 36.135 13.49 40.718 31.71l0.062 0.29 8.104 32.88h44.12c15.625-0.018 28.286-12.679 28.304-28.302v-0.002zM613.008 167.568h-202.016c-7.732 0-14-6.268-14-14s6.268-14 14-14v0h202.016c7.732 0 14 6.268 14 14s-6.268 14-14 14v0z" />
<glyph unicode="&#xe925;" glyph-name="timer" d="M842.848 646.992l-67.336 67.336c-5.464 5.226-12.889 8.443-21.064 8.443s-15.6-3.217-21.075-8.454l-13.989-13.989c-5.391-5.389-8.726-12.835-8.726-21.060s3.335-15.671 8.726-21.060l5.12-5.12-24.232-24.224c-38.23 29.704-84.626 50.764-135.255 59.423l-1.817 0.257v35.2h11.304c22.499 0.027 40.729 18.261 40.752 40.758v18.802c-0.023 22.499-18.253 40.733-40.749 40.76h-125.011c-22.502-0.023-40.737-18.258-40.76-40.758v-18.802c0.023-22.502 18.258-40.737 40.758-40.76h11.306v-35.2c-52.445-8.912-98.842-29.969-137.768-60.192l0.696 0.52-24.224 24.224 5.112 5.12c5.391 5.389 8.726 12.835 8.726 21.060s-3.335 15.671-8.726 21.060l-13.992 13.992c-5.462 5.23-12.885 8.449-21.060 8.449s-15.598-3.219-21.071-8.459l-67.325-67.317c-5.4-5.388-8.741-12.838-8.741-21.068s3.341-15.68 8.74-21.067l13.993-13.993c5.392-5.384 12.837-8.713 21.060-8.713s15.668 3.329 21.060 8.714v0l5.12 5.128 24.136-24.144c-39.953-51.611-64.044-117.259-64.044-188.534 0-170.948 138.58-309.528 309.528-309.528s309.528 138.58 309.528 309.528c0 71.275-24.091 136.923-64.574 189.247l0.53-0.712 24.096 24.144 5.112-5.112c5.395-5.382 12.841-8.711 21.064-8.711s15.669 3.328 21.065 8.711l13.991 13.991c5.392 5.39 8.727 12.838 8.727 21.064s-3.335 15.674-8.727 21.064v0zM436.736 764.536v18.8c0.023 7.038 5.722 12.737 12.758 12.76h125.018c7.035-0.027 12.729-5.725 12.752-12.758v-18.802c-0.023-7.035-5.717-12.733-12.749-12.76h-125.019c-7.038 0.023-12.737 5.722-12.76 12.758v0.002zM535.2 692c-6.944 0.546-15.036 0.858-23.2 0.858s-16.256-0.311-24.264-0.923l1.064 0.065v31.76h46.4zM214.944 610.664l-13.992 14c-0.326 0.322-0.528 0.769-0.528 1.264s0.202 0.942 0.528 1.264v0l67.352 67.344c0.322 0.324 0.767 0.524 1.26 0.524s0.938-0.2 1.26-0.524v0l14-13.992c0.322-0.324 0.522-0.771 0.522-1.264s-0.199-0.94-0.522-1.264v0l-14.784-14.816c-0.088-0.080-0.184-0.136-0.264-0.224l-52.328-52.336c-0.327-0.319-0.774-0.516-1.268-0.516s-0.941 0.197-1.268 0.516v0zM267.408 621.040l12.264 12.264 22.4-22.4q-9.144-8.432-17.512-17.544l-22.4 22.4zM512 102c-0.044 0-0.096 0-0.147 0-155.4 0-281.376 125.976-281.376 281.376 0 68.934 24.789 132.078 65.938 181.005l-0.351-0.429c10.863 13.033 22.478 24.671 35.052 35.203l0.428 0.349c39.556 33.371 89.118 56.077 143.594 63.101l1.398 0.147c10.649 1.406 22.963 2.208 35.464 2.208s24.815-0.802 36.893-2.358l-1.429 0.15c55.88-7.173 105.448-29.882 145.427-63.6l-0.419 0.344c13.020-10.897 24.651-22.553 35.171-35.168l0.357-0.44c40.772-48.488 65.543-111.611 65.543-180.52 0-155.395-125.973-281.368-281.368-281.368-0.062 0-0.123 0-0.185 0h0.010zM761.816 615.776l-22.4-22.4q-8.368 9.096-17.512 17.544l22.4 22.4 12.264-12.264zM823.048 624.664l-13.992-14c-0.326-0.319-0.772-0.515-1.264-0.515s-0.938 0.197-1.264 0.516v0l-52.336 52.336c-0.080 0.079-0.166 0.152-0.257 0.219l-0.007 0.005-14.728 14.784c-0.322 0.324-0.522 0.771-0.522 1.264s0.199 0.94 0.522 1.264v0l14.008 14c0.312 0.321 0.747 0.52 1.229 0.52 0.009 0 0.019 0 0.028 0h-0.001c0.003 0 0.007 0 0.010 0 0.487 0 0.928-0.199 1.246-0.52v0l67.352-67.352c0.324-0.322 0.524-0.767 0.524-1.26s-0.2-0.938-0.524-1.26v0zM512 595.496c0.002 0 0.005 0 0.008 0 7.728 0 13.992 6.264 13.992 13.992 0 0.003 0 0.006 0 0.008v0 29.704c0 7.732-6.268 14-14 14s-14-6.268-14-14v0-29.736c0.014-7.717 6.273-13.968 13.992-13.968 0.003 0 0.006 0 0.008 0v0zM512 173.808c-7.732 0-14-6.268-14-14v0-29.744c0-7.732 6.268-14 14-14s14 6.268 14 14v0 29.744c0 7.732-6.268 14-14 14v0zM722.84 384.648c0-7.732 6.268-14 14-14v0h29.744c7.732 0 14 6.268 14 14s-6.268 14-14 14v0h-29.744c-7.732 0-14-6.268-14-14v0zM287.2 398.648h-29.792c-7.732 0-14-6.268-14-14s6.268-14 14-14v0h29.792c7.732 0 14 6.268 14 14s-6.268 14-14 14v0zM637.992 397.48h-112v131.808c0 7.732-6.268 14-14 14s-14-6.268-14-14v0-145.808c0-7.732 6.268-14 14-14 0.003 0 0.006 0 0.008 0h125.992c7.732 0 14 6.268 14 14s-6.268 14-14 14v0z" />
<glyph unicode="&#xe926;" glyph-name="tracking" d="M346.4 179.2c0 10.4-8.8 19.2-19.2 19.2s-19.2-8.8-19.2-19.2 8.8-19.2 19.2-19.2 19.2 8.8 19.2 19.2zM770.4 179.2c0.8 10.4-8 19.2-19.2 19.2-10.4 0-19.2-8.8-19.2-19.2s8.8-19.2 19.2-19.2 19.2 8.8 19.2 19.2zM137.6 575.2v-396c0-8 6.4-14.4 14.4-14.4h98.4c8-42.4 48-70.4 91.2-63.2 32 5.6 57.6 31.2 63.2 63.2h270.4c8-42.4 48-70.4 91.2-63.2 32 5.6 57.6 31.2 63.2 63.2h44c8 0 14.4 6.4 14.4 14.4v154.4c0 2.4-0.8 4-1.6 5.6l-89.6 180c-2.4 4.8-7.2 8-12.8 8h-139.2v38.4c12 24.8 19.2 52.8 20.8 80.8 0 84.8-68.8 152.8-152.8 152.8s-152.8-68.8-152.8-152.8c0.8-19.2 4-39.2 11.2-56.8h-219.2c-8 0-13.6-6.4-14.4-14.4zM327.2 128.8c-28 0-50.4 22.4-50.4 50.4s22.4 50.4 50.4 50.4 50.4-22.4 50.4-50.4-22.4-50.4-50.4-50.4zM751.2 128.8c-28 0-50.4 22.4-50.4 50.4s22.4 50.4 50.4 50.4 50.4-22.4 50.4-50.4-22.4-50.4-50.4-50.4zM644.8 499.2h130.4l74.4-152h-204.8zM644 319.2h213.6v-126.4l-29.6 0.8c-8 42.4-48.8 70.4-91.2 63.2-32-5.6-56.8-31.2-63.2-63.2h-29.6zM512 771.2c68.8 0 124.8-56 124.8-124.8-1.6-24.8-8-48.8-19.2-72-30.4-62.4-83.2-126.4-105.6-151.2-49.6 55.2-121.6 148-124.8 223.2 0 68.8 56 124.8 124.8 124.8zM166.4 560.8h216c39.2-84 116.8-164.8 120-168 5.6-5.6 14.4-5.6 20 0 35.2 37.6 66.4 78.4 94.4 121.6v-320.8h-212.8c-8 42.4-48 70.4-91.2 63.2-32-5.6-57.6-31.2-63.2-63.2h-83.2zM592.8 646.4c0 44.8-36 80.8-80.8 80.8s-80.8-36-80.8-80.8 36-80.8 80.8-80.8 80.8 36 80.8 80.8zM459.2 646.4c0 28.8 24 52.8 52.8 52.8 29.6 0 52.8-24 52.8-52.8 0-29.6-24-52.8-52.8-52.8s-52.8 24-52.8 52.8z" />
<glyph unicode="&#xe927;" glyph-name="transaction" d="M512 220c110.4 0 196.8 77.6 220.8 172 4.8 18.4 7.2 37.6 7.2 56 0 125.6-102.4 228-228 228-128 0-228.8-104-228.8-228.8 0-121.6 100-227.2 228.8-227.2zM577.6 637.6c80.8-28 134.4-104 134.4-189.6 0-16.8-2.4-32.8-6.4-49.6-22.4-88.8-104-150.4-193.6-150.4-107.2 0-200 85.6-200 200 0 140.8 138.4 233.6 265.6 189.6zM908.8 524c-5.6 5.6-14.4 5.6-20 0l-32.8-32.8c-23.2 189.6-196.8 324.8-387.2 300.8-130.4-16-241.6-105.6-284.8-230.4-1.6-5.6-4-11.2-5.6-16.8-2.4-7.2 2.4-15.2 9.6-17.6s15.2 2.4 17.6 9.6c1.6 4.8 3.2 10.4 4.8 15.2 57.6 166.4 239.2 254.4 405.6 197.6 111.2-38.4 192.8-135.2 210.4-252l-26.4 26.4c-5.6 5.6-14.4 5.6-20 0s-5.6-14.4 0-20l52.8-52.8c5.6-7.2 16-7.2 21.6-1.6l54.4 54.4c5.6 5.6 5.6 14.4 0 20zM840.8 392c-7.2 1.6-15.2-3.2-16.8-10.4-28-138.4-153.6-252-312-252-161.6 0-298.4 120.8-316.8 281.6-0.8 4.8-0.8 9.6-1.6 13.6l29.6-29.6c5.6-5.6 14.4-6.4 20-0.8s6.4 14.4 0.8 20c-1.6 1.6-56 56-55.2 55.2-5.6 5.6-14.4 5.6-20 0l-54.4-54.4c-5.6-5.6-5.6-14.4 0-20s14.4-5.6 20 0l31.2 31.2c0-6.4 0.8-12.8 1.6-18.4 20.8-175.2 168.8-307.2 344.8-306.4 171.2 0 309.6 124.8 339.2 274.4 1.6 7.2-3.2 14.4-10.4 16zM528 462.4h-32c-5.6 0-10.4 4.8-10.4 10.4v32c0 5.6 4.8 10.4 10.4 10.4h56c8 0 14.4 6.4 14.4 14.4s-6.4 12.8-14.4 12.8h-26.4v15.2c0 8-6.4 14.4-14.4 14.4s-14.4-6.4-14.4-14.4v-15.2h-0.8c-20.8 0-38.4-16.8-38.4-38.4v-32c0-20.8 16.8-38.4 38.4-38.4h32c5.6 0 10.4-4.8 10.4-10.4v-32c0-5.6-4.8-10.4-10.4-10.4h-56c-8 0-14.4-6.4-14.4-14.4s6.4-14.4 14.4-14.4h26.4v-15.2c0-8 6.4-14.4 14.4-14.4s14.4 6.4 14.4 14.4v15.2h0.8c20.8 0 38.4 16.8 38.4 38.4v32c0 22.4-17.6 40-38.4 40z" />
<glyph unicode="&#xe928;" glyph-name="wallet" d="M764 758.4h-539.2c-47.2 0-86.4-38.4-86.4-86.4v-448c0-47.2 38.4-86.4 86.4-86.4h540c47.2 0 86.4 38.4 86.4 86.4v111.2c20 1.6 35.2 17.6 35.2 36.8v152c-0.8 20-16 36-36 36.8v111.2c0 47.2-38.4 86.4-86.4 86.4zM224.8 730.4h540c32 0 58.4-26.4 58.4-58.4v-25.6h-656v25.6h-0.8c0 32 26.4 58.4 58.4 58.4zM822.4 224c0-32-26.4-58.4-58.4-58.4h-539.2c-32 0-58.4 26.4-58.4 58.4v25.6h656zM822.4 278.4h-656v339.2h656v-56.8h-75.2v0.8c-60.8 0-110.4-49.6-110.4-110.4v-5.6c0-60.8 49.6-110.4 110.4-110.4h75.2zM857.6 523.2v-151.2c0-4.8-4-9.6-9.6-9.6h-100.8c-45.6 0-82.4 36.8-82.4 82.4v5.6c0 45.6 36.8 82.4 82.4 82.4h100.8c4.8 0 9.6-4 9.6-9.6zM802.4 448c-0.8 26.4-22.4 48.8-48.8 48.8s-48.8-21.6-48.8-48.8c0-26.4 21.6-48.8 48.8-48.8 26.4 0 48.8 21.6 48.8 48.8zM732.8 448c0 11.2 8.8 20.8 20.8 20.8 11.2 0 20.8-8.8 20.8-20.8-0.8-11.2-9.6-20.8-20.8-20.8s-20.8 8.8-20.8 20.8z" />
<glyph unicode="&#xe929;" glyph-name="weighing-scale" d="M758.4 586.4h-158.4v92.8h157.6c49.6 0 90.4 40.8 90.4 90.4v38.4c0 8-6.4 13.6-13.6 14.4h-644c-8 0-14.4-6.4-14.4-14.4v-38.4c0-49.6 40.8-90.4 90.4-90.4h157.6v-92.8h-157.6c-49.6 0-90.4-40.8-90.4-90.4v-354.4c0-8 6.4-14.4 14.4-14.4h55.2v-16.8c0-20 16-36.8 36.8-36.8h51.2c20 0 36.8 16 36.8 36.8v17.6h284.8v-16.8c0-20 16-36.8 36.8-36.8h51.2c20 0 36.8 16 36.8 36.8v16.8h55.2c8 0 13.6 6.4 13.6 14.4v353.6c0 49.6-40.8 90.4-90.4 90.4zM266.4 707.2c-34.4 0-62.4 28-62.4 62.4v24h616v-24c0-34.4-28-62.4-62.4-62.4zM572 586.4h-120v92.8h119.2zM341.6 110.4c0-4.8-4-8.8-8.8-8.8h-51.2c-4.8 0-8.8 4-8.8 8.8v16.8h68.8zM751.2 110.4c0-4.8-4-8.8-8.8-8.8h-51.2c-4.8 0-8.8 4-8.8 8.8v16.8h68.8zM820 156h-616v340c0 34.4 28 62.4 62.4 62.4h491.2c34.4 0 62.4-28 62.4-62.4zM512 512c-85.6 0-154.4-69.6-154.4-155.2s69.6-154.4 154.4-154.4 154.4 69.6 154.4 154.4-68.8 155.2-154.4 155.2zM628 342.4h9.6c-6.4-59.2-52.8-105.6-112-112v9.6c0 8-6.4 14.4-14.4 14.4s-14.4-6.4-14.4-14.4v-9.6c-59.2 6.4-105.6 52.8-112 112h9.6c8 0 14.4 6.4 14.4 14.4s-6.4 14.4-14.4 14.4h-9.6c6.4 59.2 52.8 105.6 112 112v-9.6c0-8 6.4-14.4 14.4-14.4s14.4 6.4 14.4 14.4v9.6c59.2-7.2 105.6-53.6 112-112h-9.6c-8 0-14.4-6.4-14.4-14.4s6.4-14.4 14.4-14.4zM570.4 437.6c-6.4 4-14.4 3.2-19.2-3.2l-36.8-50.4c-16.8 1.6-30.4-11.2-30.4-27.2 0-15.2 12-28 27.2-28 20 0 33.6 20.8 25.6 38.4l36.8 51.2c4 6.4 2.4 15.2-3.2 19.2z" />
<glyph unicode="&#xe92a;" glyph-name="worldwide-shipping" d="M398.4 629.6c-67.2 0-121.6-54.4-121.6-122.4 0-64.8 51.2-121.6 121.6-121.6 69.6 0 123.2 56 122.4 122.4 0 64.8-51.2 121.6-122.4 121.6zM476 560.8h-26.4c-2.4 10.4-4.8 20.8-9.6 31.2 14.4-7.2 27.2-17.6 36-31.2zM398.4 601.6c11.2-3.2 20.8-29.6 22.4-40.8h-44.8c6.4 27.2 16.8 40.8 22.4 40.8zM356.8 592c-4-9.6-7.2-20-8.8-31.2h-26.4c8.8 13.6 20.8 24 35.2 31.2zM308 482.4c-4.8 17.6-4.8 35.2 0 50.4h36c-1.6-18.4-1.6-33.6 0-50.4zM320.8 454.4h26.4c2.4-10.4 5.6-20.8 9.6-31.2-14.4 7.2-26.4 18.4-36 31.2zM398.4 413.6c-5.6 0-16 12.8-22.4 40.8h44.8c-6.4-26.4-16.8-40-22.4-40.8zM425.6 482.4h-53.6c-1.6 16-1.6 32.8 0 50.4h53.6c1.6-15.2 1.6-32.8 0-50.4zM440.8 424c4 9.6 7.2 20 8.8 31.2h26.4c-8.8-13.6-21.6-24-35.2-31.2zM489.6 482.4h-36c1.6 16.8 1.6 32.8 0 50.4h35.2c4.8-16 4.8-34.4 0.8-50.4zM346.4 282.4c0 10.4-8.8 19.2-19.2 19.2s-19.2-8.8-19.2-19.2 8.8-19.2 19.2-19.2c10.4-0.8 19.2 8 19.2 19.2zM770.4 282.4c0 10.4-8.8 19.2-19.2 19.2s-19.2-8.8-19.2-19.2 8.8-19.2 19.2-19.2c10.4-0.8 19.2 8 19.2 19.2zM630.4 692h-478.4c-8 0-13.6-6.4-14.4-13.6v-396c0-8 6.4-13.6 13.6-14.4h98.4c8-42.4 48-70.4 91.2-63.2 32 5.6 57.6 31.2 63.2 63.2h270.4c8-42.4 48-70.4 91.2-63.2 32 5.6 57.6 31.2 63.2 63.2h44c8 0 14.4 6.4 14.4 14.4v153.6c0 2.4-0.8 4-1.6 5.6-5.6 11.2-88 180-88 180-2.4 4.8-7.2 8-12.8 8h-140v48c0 8-6.4 14.4-14.4 14.4zM327.2 232c-28 0-50.4 22.4-50.4 50.4s22.4 50.4 50.4 50.4 50.4-22.4 50.4-50.4-23.2-50.4-50.4-50.4zM616.8 296h-212.8c-8 42.4-48.8 70.4-91.2 63.2-32-5.6-56.8-31.2-63.2-63.2h-83.2v368h450.4zM751.2 232c-28 0-50.4 22.4-50.4 50.4s22.4 50.4 50.4 50.4 50.4-22.4 50.4-50.4-22.4-50.4-50.4-50.4zM858.4 296h-29.6c-8 42.4-48.8 70.4-91.2 63.2-32-5.6-56.8-31.2-63.2-63.2h-29.6v126.4h213.6zM775.2 601.6l74.4-152h-204.8v152z" />
<glyph unicode="&#xe92b;" glyph-name="love" d="M512 35.413c-35.333 0.032-67.31 14.375-90.452 37.545l-0.001 0.001-282.027 281.6c-61.248 59.8-99.232 143.192-99.232 235.456 0 39.967 7.127 78.269 20.18 113.704l-0.735-2.281c27.154 82.16 96.985 143.026 182.569 156.837l1.324 0.176c6.578 0.521 14.243 0.818 21.977 0.818 102.41 0 192.659-52.064 245.724-131.166l0.673-1.065c52.696 80.171 142.23 132.369 243.954 132.369 8.295 0 16.508-0.347 24.627-1.027l-1.061 0.072c87.258-13.684 157.462-74.635 184.278-155.383l0.469-1.63c12.318-33.155 19.445-71.457 19.445-111.424 0-92.264-37.984-175.656-99.167-235.393l-0.065-0.063-282.027-281.6c-23.143-23.171-55.12-37.515-90.447-37.547h-0.006zM274.773 775.253c-2.935 0.209-6.36 0.328-9.813 0.328s-6.878-0.119-10.271-0.354l0.458 0.025c-55.641-10.169-99.794-50.478-115.362-103.065l-0.264-1.041c-8.9-24.183-14.049-52.11-14.049-81.24 0-68.663 28.606-130.645 74.549-174.678l0.086-0.082 281.6-282.027c7.733-7.795 18.45-12.621 30.293-12.621s22.56 4.826 30.291 12.618l0.003 0.003 281.6 282.027c46.030 44.115 74.635 106.097 74.635 174.76 0 29.13-5.148 57.057-14.585 82.921l0.536-1.681c-16.365 53.313-60.779 93.171-115.601 102.7l-0.879 0.126c-3.272 0.181-7.1 0.285-10.953 0.285-74.565 0-140.087-38.72-177.556-97.151l-0.505-0.841c-15.749-20.492-40.267-33.569-67.84-33.569s-52.091 13.077-67.691 33.368l-0.149 0.201c-37.048 56.088-97.898 93.876-167.82 98.945l-0.713 0.042z" />
<glyph unicode="&#xe92c;" glyph-name="user" d="M512 405.333c-141.385 0-256 114.615-256 256s114.615 256 256 256c141.385 0 256-114.615 256-256v0c0-141.385-114.615-256-256-256v0zM512 832c-94.257 0-170.667-76.41-170.667-170.667s76.41-170.667 170.667-170.667c94.257 0 170.667 76.41 170.667 170.667v0c0 94.257-76.41 170.667-170.667 170.667v0zM512 2.133c-0.155 0-0.339 0-0.523 0-113.216 0-217.229 39.407-299.069 105.253l0.925-0.72c-36.086 28.535-59.033 72.314-59.033 121.453 0 11.693 1.299 23.082 3.762 34.032l-0.195-1.032c14.156 60.281 41.661 112.752 79.316 156.185l-0.383-0.452c7.865 9.021 19.377 14.689 32.213 14.689s24.348-5.668 32.17-14.638l0.043-0.051c6.367-7.409 10.243-17.119 10.243-27.733s-3.876-20.324-10.29-27.79l0.048 0.057c-28.96-32.842-50.251-73.138-60.65-117.623l-0.363-1.844c-0.924-4.226-1.454-9.081-1.454-14.059 0-22.21 10.54-41.958 26.891-54.515l0.163-0.12c66.582-53.999 152.353-86.696 245.76-86.696s179.178 32.697 246.49 87.269l-0.73-0.573c16.514 12.677 27.054 32.425 27.054 54.635 0 4.978-0.53 9.833-1.535 14.51l0.081-0.451c-10.422 46.776-31.606 87.536-60.863 121.070l0.276-0.324c-6.367 7.409-10.243 17.119-10.243 27.733s3.876 20.324 10.29 27.79l-0.048-0.057c7.865 9.021 19.377 14.689 32.213 14.689s24.348-5.668 32.17-14.638l0.043-0.051c37.272-42.981 64.778-95.452 78.443-153.273l0.49-2.461c2.462-10.328 3.874-22.186 3.874-34.374 0-49.085-22.897-92.823-58.593-121.114l-0.321-0.245c-80.916-65.127-184.928-104.534-298.144-104.534-0.184 0-0.368 0-0.552 0h0.029z" />
<glyph unicode="&#xe92d;" glyph-name="shopping-basket1" d="M710.827-21.333h-397.653c-0.089 0-0.194 0-0.299 0-79.094 0-145.622 53.805-164.979 126.809l-0.268 1.191-62.293 256c-3.443 12.806-5.421 27.508-5.421 42.672 0 93.762 75.611 169.865 169.185 170.66l0.075 0.001h525.653c93.65-0.796 169.261-76.899 169.261-170.661 0-15.164-1.978-29.867-5.689-43.864l0.269 1.191-64-256c-19.502-73.741-85.321-127.331-163.764-127.999l-0.076-0.001zM249.173 490.667c-0.012 0-0.026 0-0.041 0-47.128 0-85.333-38.205-85.333-85.333 0-7.426 0.949-14.631 2.731-21.5l-0.131 0.593 64-256c9.661-37.313 43.031-64.427 82.733-64.427 0.014 0 0.029 0 0.043 0h397.651c0.012 0 0.026 0 0.041 0 39.702 0 73.071 27.113 82.602 63.834l0.131 0.593 64 256c1.652 6.276 2.601 13.48 2.601 20.907 0 47.128-38.205 85.333-85.333 85.333-0.014 0-0.029 0-0.043 0h0.002zM331.947 526.507l-78.933 32.853 81.493 197.12c6.616 15.517 21.741 26.197 39.36 26.197 5.807 0 11.343-1.16 16.389-3.261l-0.282 0.104c15.714-6.528 26.562-21.753 26.562-39.511 0-5.75-1.137-11.234-3.199-16.24l0.103 0.284zM589.589 214.72l65.024 157.867c8.978 21.797 33.926 32.189 55.723 23.211s32.189-33.926 23.211-55.723l-65.024-157.867c-8.978-21.797-33.926-32.189-55.723-23.211s-32.189 33.926-23.211 55.723zM314.261 395.669c21.797 8.978 46.745-1.414 55.723-23.211l65.024-157.867c8.978-21.797-1.414-46.745-23.211-55.723s-46.745 1.414-55.723 23.211l-65.024 157.867c-8.978 21.797 1.414 46.745 23.211 55.723zM686.080 526.507l-72.533 200.533c-1.548 4.237-2.443 9.129-2.443 14.23 0 18.634 11.946 34.478 28.597 40.292l0.299 0.091c4.313 1.608 9.296 2.538 14.496 2.538 18.352 0 33.997-11.586 40.021-27.843l0.096-0.295 73.387-200.533z" />
<glyph unicode="&#xe92e;" glyph-name="search1" d="M426.667 149.333c-212.077 0-384 171.923-384 384s171.923 384 384 384c212.077 0 384-171.923 384-384v0c0-212.077-171.923-384-384-384v0zM426.667 832c-164.949 0-298.667-133.718-298.667-298.667s133.718-298.667 298.667-298.667c164.949 0 298.667 133.718 298.667 298.667v0c0 164.949-133.718 298.667-298.667 298.667v0zM712.96 307.627l-60.587-60.587 226.133-225.707c7.712-7.668 18.343-12.407 30.080-12.407s22.368 4.74 30.082 12.409l-0.002-0.002c7.668 7.712 12.407 18.343 12.407 30.080s-4.74 22.368-12.409 30.082l0.002-0.002z" />
<glyph unicode="&#xe92f;" glyph-name="eye" d="M512 277.333c-94.257 0-170.667 76.41-170.667 170.667s76.41 170.667 170.667 170.667c94.257 0 170.667-76.41 170.667-170.667v0c0-94.257-76.41-170.667-170.667-170.667v0zM512 533.333c-47.128 0-85.333-38.205-85.333-85.333s38.205-85.333 85.333-85.333c47.128 0 85.333 38.205 85.333 85.333v0c0 47.128-38.205 85.333-85.333 85.333v0zM512 94.293c-0.531-0.002-1.16-0.003-1.788-0.003-186.911 0-348.78 107.214-427.465 263.497l-1.253 2.746c-12.908 25.505-20.468 55.603-20.468 87.467s7.56 61.961 20.985 88.597l-0.516-1.131c80.765 159.039 243.131 266.119 430.507 266.119s349.743-107.080 429.245-263.384l1.262-2.734c12.908-25.505 20.468-55.603 20.468-87.467s-7.56-61.961-20.985-88.597l0.516 1.131c-79.938-159.030-241.807-266.243-428.718-266.243-0.629 0-1.257 0.001-1.885 0.004h0.097zM157.867 497.493c-7.474-14.397-11.857-31.433-11.857-49.493s4.383-35.096 12.144-50.103l-0.287 0.61c64.486-130.633 196.759-218.906 349.649-218.906 1.577 0 3.151 0.009 4.723 0.028l-0.239-0.002c1.333-0.016 2.907-0.026 4.484-0.026 152.89 0 285.163 88.273 348.633 216.634l1.016 2.272c7.474 14.397 11.857 31.433 11.857 49.493s-4.383 35.096-12.144 50.103l0.287-0.61c-64.486 130.633-196.759 218.906-349.649 218.906-1.577 0-3.151-0.009-4.723-0.028l0.239 0.002c-1.333 0.016-2.907 0.026-4.484 0.026-152.89 0-285.163-88.273-348.633-216.634l-1.016-2.272z" />
<glyph unicode="&#xe930;" glyph-name="loved" d="M512.043 766.763c100.224 89.984 255.104 86.997 351.659-9.728 96.512-96.768 99.84-250.88 10.069-351.403l-361.813-362.325-361.728 362.325c-89.771 100.523-86.4 254.891 10.069 351.403 96.64 96.597 251.221 99.84 351.744 9.728z" />
<glyph unicode="&#xe931;" glyph-name="eye-fill" d="M672 448c0-88.366-71.634-160-160-160s-160 71.634-160 160v0c0 88.366 71.634 160 160 160s160-71.634 160-160v0zM0 448s192 352 512 352 512-352 512-352-192-352-512-352-512 352-512 352zM512 224c123.712 0 224 100.288 224 224s-100.288 224-224 224v0c-123.712 0-224-100.288-224-224s100.288-224 224-224v0z" />
<glyph unicode="&#xe932;" glyph-name="quotes" d="M193.6 173.8c-33.8 0-67.2 9-97.8 26.8-86 50.4-119.6 156.8-78.2 247.6 10.2 22.4 24.4 42.4 42 59.2l146.2 142.2c50.6 49.2 120 75.6 190.4 72.4l84.4-3.8c23.8-1 42.6-21.4 41.8-45.2-0.4-11.8-5.2-22.6-13.8-30.6s-19.8-12.2-31.4-12l-112.6 3.4c-32 1-62.2-12.4-83.2-36.6l-1.2-1.4c-6.2-7.2-8.6-16.6-7-25.8 1.8-9.4 7.6-17.2 16-21.6l0.8-0.4c36.4-19.4 65.8-52.6 82.8-94 16.4-40 20.2-84.8 11-126-14.2-62.8-55.4-113-112.8-138-25-10.8-51.2-16.2-77.4-16.2zM384.6 702.2c-61.2 0-120.8-24-164.8-67l-146.2-142.4c-15.8-15.2-28.4-33-37.6-53.2-37.2-81.4-7-176.8 70.2-222 48.4-28.4 105.6-31.8 157-9.4s88.4 67.6 101.2 124c17.8 78.2-18.2 163.2-83.6 198l-0.8 0.4c-13.8 7.2-23.4 20.2-26.4 35.6s1.2 30.8 11.4 42.6l1.2 1.4c24.8 28.8 60.8 44.6 98.8 43.4l112.6-3.4c6.4-0.2 12.4 2.2 17.2 6.4 4.6 4.4 7.4 10.4 7.6 16.6 0.4 13-9.8 24-22.8 24.6l-84.4 3.8c-3.6 0.6-7.2 0.6-10.6 0.6zM695.2 173.8c-33.8 0-67.2 9-97.8 26.8-86.2 50.4-119.8 156.8-78.2 247.6 10.2 22.4 24.4 42.4 42 59.2l146.2 142.2c50.6 49.2 120 75.6 190.4 72.4l84.4-3.8c23.8-1 42.6-21.4 41.8-45.2-0.8-24.2-21.2-43.2-45.2-42.6l-112.6 3.4c-31.8 1-62.2-12.4-83.2-36.6l-1.2-1.4c-6.2-7.2-8.8-16.6-7-25.8 1.8-9.4 7.6-17.2 16-21.6l0.8-0.4c36.4-19.4 65.8-52.6 82.8-94 16.4-40 20.2-84.8 11-126-14.2-62.8-55.4-113-112.8-138-25-10.8-51.2-16.2-77.4-16.2zM886.2 702.2c-61.2 0-120.8-24-164.8-67l-146.2-142.4c-15.8-15.2-28.4-33-37.6-53.2-37.2-81.4-7-176.8 70.2-222 48.4-28.4 105.6-31.8 157-9.4s88.4 67.6 101.2 124c17.8 78.2-18.2 163.2-83.6 198l-0.8 0.4c-13.8 7.2-23.4 20.2-26.4 35.6s1.2 30.8 11.4 42.6l1.2 1.4c24.8 28.8 60.8 44.6 98.8 43.4l112.6-3.4c13.2-0.4 24.2 10 24.6 23.2 0.4 13-9.8 24-22.8 24.6l-84.4 3.8c-3.4 0.4-7 0.4-10.4 0.4z" />
<glyph unicode="&#xe933;" glyph-name="box-2" d="M866.24 928h-708.48c-69.455 0-125.76-56.305-125.76-125.76v0-708.48c0-69.455 56.305-125.76 125.76-125.76v0h708.48c69.455 0 125.76 56.305 125.76 125.76v0 68.48c0 17.673-14.327 32-32 32s-32-14.327-32-32v0-68.48c-0.181-34.036-27.724-61.579-61.743-61.76h-708.497c-34.036 0.181-61.579 27.724-61.76 61.743v708.497c0.181 34.036 27.724 61.579 61.743 61.76h219.217v-260.16c0-17.736 8.488-33.49 21.623-43.421l0.137-0.099c8.953-6.488 20.157-10.378 32.27-10.378 5.725 0 11.248 0.869 16.443 2.483l-0.392-0.105 64 20.16 64-20.16c4.773-1.578 10.269-2.511 15.976-2.56h0.024c12.030 0.207 23.105 4.134 32.167 10.675l-0.167-0.115c13.272 10.030 21.76 25.784 21.76 43.52v0 260.16h219.2c0.572 0.019 1.245 0.030 1.921 0.030 34.184 0 61.914-27.629 62.079-61.774v-307.216c0-17.673 14.327-32 32-32s32 14.327 32 32v0 307.2c0 69.455-56.305 125.76-125.76 125.76v0zM583.040 617.28l-55.040 17.28c-4.794 1.422-10.301 2.241-16 2.241s-11.206-0.819-16.412-2.344l0.412 0.103-55.040-17.28v244.8h142.080z" />
</font>
</defs>
</svg>
